<svg width="1288" height="674" viewBox="0 0 1288 674" fill="none" xmlns="http://www.w3.org/2000/svg">
<g filter="url(#filter0_d_68_64)">
<g clip-path="url(#clip0_68_64)">
<path d="M947.085 119.846V42.1719L879.749 3.33685L812.413 42.1719V119.846L879.749 158.681L947.085 119.846Z" stroke="#8A8BC9" stroke-opacity="0.2" stroke-miterlimit="10"/>
<path d="M1081.76 119.846V42.1719L1014.42 3.33685L947.085 42.1719V119.846L1014.42 158.681L1081.76 119.846Z" stroke="#8A8BC9" stroke-opacity="0.2" stroke-miterlimit="10"/>
<path d="M1216.43 119.846V42.1719L1149.1 3.33685L1081.76 42.1719V119.846L1149.1 158.681L1216.43 119.846Z" stroke="#8A8BC9" stroke-opacity="0.2" stroke-miterlimit="10"/>
<path d="M812.377 119.846V42.1719L745.04 3.33685L677.704 42.1719V119.846L745.04 158.681L812.377 119.846Z" stroke="#8A8BC9" stroke-opacity="0.2" stroke-miterlimit="10"/>
<path d="M677.668 119.846V42.1719L610.332 3.33685L542.995 42.1719V119.846L610.332 158.681L677.668 119.846Z" stroke="#8A8BC9" stroke-opacity="0.2" stroke-miterlimit="10"/>
<path d="M542.96 119.846V42.1719L475.623 3.33685L408.286 42.1719V119.846L475.623 158.681L542.96 119.846Z" stroke="#8A8BC9" stroke-opacity="0.2" stroke-miterlimit="10"/>
<path d="M408.251 119.846V42.1719L340.915 3.33685L273.578 42.1719V119.846L340.915 158.681L408.251 119.846Z" stroke="#8A8BC9" stroke-opacity="0.2" stroke-miterlimit="10"/>
<path d="M273.543 119.846V42.1719L206.206 3.33685L138.869 42.1719V119.846L206.206 158.681L273.543 119.846Z" stroke="#8A8BC9" stroke-opacity="0.2" stroke-miterlimit="10"/>
<path d="M138.835 119.846V42.1719L71.4968 3.33685L4.15991 42.1719V119.846L71.4968 158.681L138.835 119.846Z" stroke="#8A8BC9" stroke-opacity="0.2" stroke-miterlimit="10"/>
<path d="M1014.49 158.639V80.9683L947.153 42.1332L879.816 80.9683V158.639L947.153 197.475L1014.49 158.639Z" stroke="#8A8BC9" stroke-opacity="0.2" stroke-miterlimit="10"/>
<path d="M1149.17 158.639V80.9683L1081.83 42.1332L1014.49 80.9683V158.639L1081.83 197.475L1149.17 158.639Z" stroke="#8A8BC9" stroke-opacity="0.2" stroke-miterlimit="10"/>
<path d="M1283.84 158.639V80.9683L1216.5 42.1332L1149.17 80.9683V158.639L1216.5 197.475L1283.84 158.639Z" stroke="#8A8BC9" stroke-opacity="0.2" stroke-miterlimit="10"/>
<path d="M879.781 158.639V80.9683L812.444 42.1332L745.107 80.9683V158.639L812.444 197.475L879.781 158.639Z" stroke="#8A8BC9" stroke-opacity="0.2" stroke-miterlimit="10"/>
<path d="M745.072 158.639V80.9683L677.735 42.1332L610.398 80.9683V158.639L677.735 197.475L745.072 158.639Z" stroke="#8A8BC9" stroke-opacity="0.2" stroke-miterlimit="10"/>
<path d="M610.367 158.639V80.9683L543.026 42.1332L475.69 80.9683V158.639L543.026 197.475L610.367 158.639Z" stroke="#8A8BC9" stroke-opacity="0.2" stroke-miterlimit="10"/>
<path d="M475.658 158.639V80.9683L408.318 42.1332L340.981 80.9683V158.639L408.318 197.475L475.658 158.639Z" stroke="#8A8BC9" stroke-opacity="0.2" stroke-miterlimit="10"/>
<path d="M340.95 158.639V80.9683L273.611 42.1332L206.274 80.9683V158.639L273.611 197.475L340.95 158.639Z" stroke="#8A8BC9" stroke-opacity="0.2" stroke-miterlimit="10"/>
<path d="M206.24 158.639V80.9683L138.903 42.1332L71.5657 80.9683V158.639L138.903 197.475L206.24 158.639Z" stroke="#8A8BC9" stroke-opacity="0.2" stroke-miterlimit="10"/>
<path d="M947.085 275.768V198.094L879.749 159.259L812.413 198.094V275.768L879.749 314.603L947.085 275.768Z" stroke="#8A8BC9" stroke-opacity="0.2" stroke-miterlimit="10"/>
<path d="M1081.76 275.768V198.094L1014.42 159.259L947.085 198.094V275.768L1014.42 314.603L1081.76 275.768Z" stroke="#8A8BC9" stroke-opacity="0.2" stroke-miterlimit="10"/>
<path d="M1216.43 275.768V198.094L1149.1 159.259L1081.76 198.094V275.768L1149.1 314.603L1216.43 275.768Z" stroke="#8A8BC9" stroke-opacity="0.2" stroke-miterlimit="10"/>
<path d="M812.377 275.768V198.094L745.04 159.259L677.704 198.094V275.768L745.04 314.603L812.377 275.768Z" stroke="#8A8BC9" stroke-opacity="0.2" stroke-miterlimit="10"/>
<path d="M677.668 275.768V198.094L610.332 159.259L542.995 198.094V275.768L610.332 314.603L677.668 275.768Z" stroke="#8A8BC9" stroke-opacity="0.2" stroke-miterlimit="10"/>
<path d="M542.96 275.768V198.094L475.623 159.259L408.286 198.094V275.768L475.623 314.603L542.96 275.768Z" stroke="#8A8BC9" stroke-opacity="0.2" stroke-miterlimit="10"/>
<path d="M408.251 275.768V198.094L340.915 159.259L273.578 198.094V275.768L340.915 314.603L408.251 275.768Z" stroke="#8A8BC9" stroke-opacity="0.2" stroke-miterlimit="10"/>
<path d="M273.543 275.768V198.094L206.206 159.259L138.869 198.094V275.768L206.206 314.603L273.543 275.768Z" stroke="#8A8BC9" stroke-opacity="0.2" stroke-miterlimit="10"/>
<path d="M138.835 275.768V198.094L71.4968 159.259L4.15991 198.094V275.768L71.4968 314.603L138.835 275.768Z" stroke="#8A8BC9" stroke-opacity="0.2" stroke-miterlimit="10"/>
<path d="M1014.49 314.564V236.892L947.153 198.055L879.816 236.892V314.564L947.153 353.399L1014.49 314.564Z" stroke="#8A8BC9" stroke-opacity="0.2" stroke-miterlimit="10"/>
<path d="M1149.17 314.564V236.892L1081.83 198.055L1014.49 236.892V314.564L1081.83 353.399L1149.17 314.564Z" stroke="#8A8BC9" stroke-opacity="0.2" stroke-miterlimit="10"/>
<path d="M1283.84 314.564V236.892L1216.5 198.055L1149.17 236.892V314.564L1216.5 353.399L1283.84 314.564Z" stroke="#8A8BC9" stroke-opacity="0.2" stroke-miterlimit="10"/>
<path d="M879.781 314.564V236.892L812.444 198.055L745.107 236.892V314.564L812.444 353.399L879.781 314.564Z" stroke="#8A8BC9" stroke-opacity="0.2" stroke-miterlimit="10"/>
<path d="M745.072 314.564V236.892L677.735 198.055L610.398 236.892V314.564L677.735 353.399L745.072 314.564Z" stroke="#8A8BC9" stroke-opacity="0.2" stroke-miterlimit="10"/>
<path d="M610.367 314.564V236.892L543.026 198.055L475.69 236.892V314.564L543.026 353.399L610.367 314.564Z" stroke="#8A8BC9" stroke-opacity="0.2" stroke-miterlimit="10"/>
<path d="M475.658 314.564V236.892L408.318 198.055L340.981 236.892V314.564L408.318 353.399L475.658 314.564Z" stroke="#8A8BC9" stroke-opacity="0.2" stroke-miterlimit="10"/>
<path d="M340.95 314.564V236.892L273.611 198.055L206.274 236.892V314.564L273.611 353.399L340.95 314.564Z" stroke="#8A8BC9" stroke-opacity="0.2" stroke-miterlimit="10"/>
<path d="M206.24 314.564V236.892L138.903 198.055L71.5657 236.892V314.564L138.903 353.399L206.24 314.564Z" stroke="#8A8BC9" stroke-opacity="0.2" stroke-miterlimit="10"/>
<path d="M947.085 431.108V353.438L879.749 314.601L812.413 353.438V431.108L879.749 469.945L947.085 431.108Z" stroke="#8A8BC9" stroke-opacity="0.2" stroke-miterlimit="10"/>
<path d="M1081.76 431.108V353.438L1014.42 314.601L947.085 353.438V431.108L1014.42 469.945L1081.76 431.108Z" stroke="#8A8BC9" stroke-opacity="0.2" stroke-miterlimit="10"/>
<path d="M1216.43 431.108V353.438L1149.1 314.601L1081.76 353.438V431.108L1149.1 469.945L1216.43 431.108Z" stroke="#8A8BC9" stroke-opacity="0.2" stroke-miterlimit="10"/>
<path d="M812.377 431.108V353.438L745.04 314.601L677.704 353.438V431.108L745.04 469.945L812.377 431.108Z" stroke="#8A8BC9" stroke-opacity="0.2" stroke-miterlimit="10"/>
<path d="M677.668 431.108V353.438L610.332 314.601L542.995 353.438V431.108L610.332 469.945L677.668 431.108Z" stroke="#8A8BC9" stroke-opacity="0.2" stroke-miterlimit="10"/>
<path d="M542.96 431.108V353.438L475.623 314.601L408.286 353.438V431.108L475.623 469.945L542.96 431.108Z" stroke="#8A8BC9" stroke-opacity="0.2" stroke-miterlimit="10"/>
<path d="M408.251 431.108V353.438L340.915 314.601L273.578 353.438V431.108L340.915 469.945L408.251 431.108Z" stroke="#8A8BC9" stroke-opacity="0.2" stroke-miterlimit="10"/>
<path d="M273.543 431.108V353.438L206.206 314.601L138.869 353.438V431.108L206.206 469.945L273.543 431.108Z" stroke="#8A8BC9" stroke-opacity="0.2" stroke-miterlimit="10"/>
<path d="M138.835 431.108V353.438L71.4968 314.601L4.15991 353.438V431.108L71.4968 469.945L138.835 431.108Z" stroke="#8A8BC9" stroke-opacity="0.2" stroke-miterlimit="10"/>
<path d="M1014.49 469.906V392.232L947.153 353.397L879.816 392.232V469.906L947.153 508.741L1014.49 469.906Z" stroke="#8A8BC9" stroke-opacity="0.2" stroke-miterlimit="10"/>
<path d="M1149.17 469.906V392.232L1081.83 353.397L1014.49 392.232V469.906L1081.83 508.741L1149.17 469.906Z" stroke="#8A8BC9" stroke-opacity="0.2" stroke-miterlimit="10"/>
<path d="M1283.84 469.906V392.232L1216.5 353.397L1149.17 392.232V469.906L1216.5 508.741L1283.84 469.906Z" stroke="#8A8BC9" stroke-opacity="0.2" stroke-miterlimit="10"/>
<path d="M879.781 469.906V392.232L812.444 353.397L745.107 392.232V469.906L812.444 508.741L879.781 469.906Z" stroke="#8A8BC9" stroke-opacity="0.2" stroke-miterlimit="10"/>
<path d="M745.072 469.906V392.232L677.735 353.397L610.398 392.232V469.906L677.735 508.741L745.072 469.906Z" stroke="#8A8BC9" stroke-opacity="0.2" stroke-miterlimit="10"/>
<path d="M610.367 469.906V392.232L543.026 353.397L475.69 392.232V469.906L543.026 508.741L610.367 469.906Z" stroke="#8A8BC9" stroke-opacity="0.2" stroke-miterlimit="10"/>
<path d="M475.658 469.906V392.232L408.318 353.397L340.981 392.232V469.906L408.318 508.741L475.658 469.906Z" stroke="#8A8BC9" stroke-opacity="0.2" stroke-miterlimit="10"/>
<path d="M340.95 469.906V392.232L273.611 353.397L206.274 392.232V469.906L273.611 508.741L340.95 469.906Z" stroke="#8A8BC9" stroke-opacity="0.2" stroke-miterlimit="10"/>
<path d="M206.24 469.906V392.232L138.903 353.397L71.5657 392.232V469.906L138.903 508.741L206.24 469.906Z" stroke="#8A8BC9" stroke-opacity="0.2" stroke-miterlimit="10"/>
<path d="M947.085 587.032V509.361L879.749 470.525L812.413 509.361V587.032L879.749 625.867L947.085 587.032Z" stroke="#8A8BC9" stroke-opacity="0.2" stroke-miterlimit="10"/>
<path d="M1081.76 587.032V509.361L1014.42 470.525L947.085 509.361V587.032L1014.42 625.867L1081.76 587.032Z" stroke="#8A8BC9" stroke-opacity="0.2" stroke-miterlimit="10"/>
<path d="M1216.43 587.032V509.361L1149.1 470.525L1081.76 509.361V587.032L1149.1 625.867L1216.43 587.032Z" stroke="#8A8BC9" stroke-opacity="0.2" stroke-miterlimit="10"/>
<path d="M812.377 587.032V509.361L745.04 470.525L677.704 509.361V587.032L745.04 625.867L812.377 587.032Z" stroke="#8A8BC9" stroke-opacity="0.2" stroke-miterlimit="10"/>
<path d="M677.668 587.032V509.361L610.332 470.525L542.995 509.361V587.032L610.332 625.867L677.668 587.032Z" stroke="#8A8BC9" stroke-opacity="0.2" stroke-miterlimit="10"/>
<path d="M542.96 587.032V509.361L475.623 470.525L408.286 509.361V587.032L475.623 625.867L542.96 587.032Z" stroke="#8A8BC9" stroke-opacity="0.2" stroke-miterlimit="10"/>
<path d="M408.251 587.032V509.361L340.915 470.525L273.578 509.361V587.032L340.915 625.867L408.251 587.032Z" stroke="#8A8BC9" stroke-opacity="0.2" stroke-miterlimit="10"/>
<path d="M273.543 587.032V509.361L206.206 470.525L138.869 509.361V587.032L206.206 625.867L273.543 587.032Z" stroke="#8A8BC9" stroke-opacity="0.2" stroke-miterlimit="10"/>
<path d="M138.835 587.032V509.361L71.4968 470.525L4.15991 509.361V587.032L71.4968 625.867L138.835 587.032Z" stroke="#8A8BC9" stroke-opacity="0.2" stroke-miterlimit="10"/>
<mask id="mask0_68_64" style="mask-type:luminance" maskUnits="userSpaceOnUse" x="875" y="504" width="145" height="164">
<path d="M875.142 504.615H1019.11V668H875.142V504.615Z" fill="white"/>
</mask>
<g mask="url(#mask0_68_64)">
<path d="M1014.49 625.828V548.158L947.153 509.323L879.816 548.158V625.828L947.153 664.663L1014.49 625.828Z" stroke="#8A8BC9" stroke-opacity="0.2" stroke-miterlimit="10"/>
</g>
<mask id="mask1_68_64" style="mask-type:luminance" maskUnits="userSpaceOnUse" x="1009" y="504" width="145" height="164">
<path d="M1009.83 504.615H1153.79V668H1009.83V504.615Z" fill="white"/>
</mask>
<g mask="url(#mask1_68_64)">
<path d="M1149.17 625.828V548.158L1081.83 509.323L1014.49 548.158V625.828L1081.83 664.663L1149.17 625.828Z" stroke="#8A8BC9" stroke-opacity="0.2" stroke-miterlimit="10"/>
</g>
<mask id="mask2_68_64" style="mask-type:luminance" maskUnits="userSpaceOnUse" x="1144" y="504" width="141" height="164">
<path d="M1144.52 504.615H1284V668H1144.52V504.615Z" fill="white"/>
</mask>
<g mask="url(#mask2_68_64)">
<path d="M1283.84 625.828V548.158L1216.5 509.323L1149.17 548.158V625.828L1216.5 664.663L1283.84 625.828Z" stroke="#8A8BC9" stroke-opacity="0.2" stroke-miterlimit="10"/>
</g>
<mask id="mask3_68_64" style="mask-type:luminance" maskUnits="userSpaceOnUse" x="740" y="504" width="145" height="164">
<path d="M740.456 504.615H884.42V668H740.456V504.615Z" fill="white"/>
</mask>
<g mask="url(#mask3_68_64)">
<path d="M879.781 625.828V548.158L812.444 509.323L745.107 548.158V625.828L812.444 664.663L879.781 625.828Z" stroke="#8A8BC9" stroke-opacity="0.2" stroke-miterlimit="10"/>
</g>
<mask id="mask4_68_64" style="mask-type:luminance" maskUnits="userSpaceOnUse" x="605" y="504" width="145" height="164">
<path d="M605.77 504.615H749.734V668H605.77V504.615Z" fill="white"/>
</mask>
<g mask="url(#mask4_68_64)">
<path d="M745.072 625.828V548.158L677.735 509.323L610.398 548.158V625.828L677.735 664.663L745.072 625.828Z" stroke="#8A8BC9" stroke-opacity="0.2" stroke-miterlimit="10"/>
</g>
<mask id="mask5_68_64" style="mask-type:luminance" maskUnits="userSpaceOnUse" x="471" y="504" width="145" height="164">
<path d="M471.083 504.615H615.047V668H471.083V504.615Z" fill="white"/>
</mask>
<g mask="url(#mask5_68_64)">
<path d="M610.367 625.828V548.158L543.027 509.323L475.69 548.158V625.828L543.027 664.663L610.367 625.828Z" stroke="#8A8BC9" stroke-opacity="0.2" stroke-miterlimit="10"/>
</g>
<mask id="mask6_68_64" style="mask-type:luminance" maskUnits="userSpaceOnUse" x="336" y="504" width="145" height="164">
<path d="M336.397 504.615H480.361V668H336.397V504.615Z" fill="white"/>
</mask>
<g mask="url(#mask6_68_64)">
<path d="M475.658 625.828V548.158L408.318 509.323L340.981 548.158V625.828L408.318 664.663L475.658 625.828Z" stroke="#8A8BC9" stroke-opacity="0.2" stroke-miterlimit="10"/>
</g>
<mask id="mask7_68_64" style="mask-type:luminance" maskUnits="userSpaceOnUse" x="201" y="504" width="145" height="164">
<path d="M201.71 504.615H345.674V668H201.71V504.615Z" fill="white"/>
</mask>
<g mask="url(#mask7_68_64)">
<path d="M340.95 625.828V548.158L273.611 509.323L206.274 548.158V625.828L273.611 664.663L340.95 625.828Z" stroke="#8A8BC9" stroke-opacity="0.2" stroke-miterlimit="10"/>
</g>
<mask id="mask8_68_64" style="mask-type:luminance" maskUnits="userSpaceOnUse" x="67" y="504" width="144" height="164">
<path d="M67.0242 504.615H210.988V668H67.0242V504.615Z" fill="white"/>
</mask>
<g mask="url(#mask8_68_64)">
<path d="M206.239 625.828V548.158L138.902 509.323L71.5654 548.158V625.828L138.902 664.663L206.239 625.828Z" stroke="#8A8BC9" stroke-opacity="0.2" stroke-miterlimit="10"/>
</g>
</g>
</g>
<defs>
<filter id="filter0_d_68_64" x="0" y="0" width="1288" height="676" filterUnits="userSpaceOnUse" color-interpolation-filters="sRGB">
<feFlood flood-opacity="0" result="BackgroundImageFix"/>
<feColorMatrix in="SourceAlpha" type="matrix" values="0 0 0 0 0 0 0 0 0 0 0 0 0 0 0 0 0 0 127 0" result="hardAlpha"/>
<feOffset dy="4"/>
<feGaussianBlur stdDeviation="2"/>
<feComposite in2="hardAlpha" operator="out"/>
<feColorMatrix type="matrix" values="0 0 0 0 0 0 0 0 0 0 0 0 0 0 0 0 0 0 0.25 0"/>
<feBlend mode="normal" in2="BackgroundImageFix" result="effect1_dropShadow_68_64"/>
<feBlend mode="normal" in="SourceGraphic" in2="effect1_dropShadow_68_64" result="shape"/>
</filter>
<clipPath id="clip0_68_64">
<rect width="1280" height="668" fill="white" transform="translate(4)"/>
</clipPath>
</defs>
</svg>
