<svg width="33" height="33" viewBox="0 0 33 33" fill="none" xmlns="http://www.w3.org/2000/svg">
<path d="M0 0V27.72C0 29.1203 0.556284 30.4633 1.54648 31.4535C2.53667 32.4437 3.87966 33 5.28 33H27.72C29.1203 33 30.4633 32.4437 31.4535 31.4535C32.4437 30.4633 33 29.1203 33 27.72V5.28C33 3.87966 32.4437 2.53667 31.4535 1.54648C30.4633 0.556284 29.1203 0 27.72 0L0 0ZM19.602 17.985C21.747 17.985 22.737 19.47 22.77 21.615H20.559C20.592 21.219 20.493 20.79 20.361 20.46C20.229 20.196 19.965 20.097 19.602 20.097C18.975 20.097 18.645 20.46 18.645 21.252C18.612 22.044 19.041 22.473 19.701 22.737C20.691 23.133 21.912 23.76 22.341 24.519C22.737 25.113 22.935 25.872 22.935 26.796C22.935 29.007 21.681 30.36 19.503 30.36C17.226 30.36 16.203 28.941 16.17 26.664H18.48C18.48 27.753 18.843 28.281 19.569 28.281C19.932 28.281 20.196 28.182 20.328 27.951C20.592 27.522 20.658 26.334 20.262 25.872C19.833 25.311 19.008 25.047 18.447 24.75C17.688 24.387 17.127 23.958 16.764 23.463C16.434 22.968 16.269 22.242 16.269 21.351C16.269 19.371 17.556 17.952 19.602 17.985ZM27.027 17.985C29.205 17.985 30.195 19.47 30.228 21.615H28.017C28.017 21.219 27.951 20.79 27.786 20.46C27.654 20.196 27.423 20.097 27.06 20.097C26.4 20.097 26.07 20.46 26.07 21.252C26.07 22.044 26.466 22.473 27.159 22.737C28.116 23.133 29.37 23.76 29.799 24.519C30.162 25.113 30.36 25.872 30.36 26.796C30.393 29.007 29.139 30.36 26.961 30.36C24.651 30.36 23.628 28.908 23.595 26.664H25.905C25.905 27.687 26.268 28.281 26.994 28.281C27.357 28.281 27.621 28.182 27.753 27.951C28.05 27.522 28.116 26.334 27.687 25.872C27.291 25.311 26.466 25.047 25.872 24.75C25.113 24.387 24.552 23.958 24.222 23.463C23.892 22.968 23.727 22.242 23.727 21.351C23.694 19.371 24.981 17.952 27.027 17.985ZM11.8594 18.0098C12.837 18.0015 13.8105 18.282 14.388 18.876C14.982 19.47 15.312 20.427 15.279 21.615H12.837C12.87 20.988 12.705 20.526 12.243 20.295C11.814 20.097 11.187 20.229 11.022 20.625C10.857 20.988 10.758 21.417 10.791 21.813V26.631C10.791 27.654 11.154 28.182 11.847 28.182C11.9936 28.1884 12.1395 28.1587 12.2719 28.0954C12.4043 28.0321 12.519 27.9372 12.606 27.819C12.837 27.489 12.87 27.06 12.837 26.664H15.279C15.411 28.908 13.926 30.393 11.748 30.36C9.636 30.36 8.316 29.172 8.349 26.961V21.417C8.349 20.295 8.679 19.437 9.306 18.876C9.9 18.315 10.8818 18.018 11.8594 18.0098Z" fill="#639"/>
</svg>
