<svg width="32" height="19" viewBox="0 0 32 19" fill="none" xmlns="http://www.w3.org/2000/svg">
<path d="M32 18.4892C31.5343 18.6694 31.0202 18.669 30.5547 18.4881C30.0892 18.3071 29.7046 17.9581 29.4733 17.5068L24.8733 10.9974L24.2067 10.0874L18.8693 17.515C18.652 17.9473 18.2882 18.2838 17.846 18.4616C17.4038 18.6394 16.9135 18.6463 16.4667 18.481L23.344 9.03952L16.9467 0.510824C17.4067 0.341198 17.9097 0.338949 18.3712 0.504456C18.8326 0.669963 19.2242 0.993115 19.48 1.4195L24.248 8.00942L29.0427 1.44678C29.2617 1.02217 29.6256 0.694725 30.0651 0.52669C30.5047 0.358654 30.9892 0.361748 31.4267 0.535383L28.944 3.90675L25.5813 8.38599C25.488 8.47123 25.4132 8.5757 25.3621 8.69256C25.3109 8.80942 25.2845 8.93603 25.2845 9.06408C25.2845 9.19213 25.3109 9.31874 25.3621 9.4356C25.4132 9.55246 25.488 9.65694 25.5813 9.74218L31.9867 18.4905L32 18.4892ZM0.00268266 8.92219L0.562682 6.09111C2.10135 0.493088 8.37335 -1.8359 12.688 1.62961C15.2147 3.66116 15.8453 6.53726 15.7213 9.77901H1.48802C1.25735 15.5681 5.34001 19.0636 10.56 17.2776C11.4062 16.9659 12.1637 16.4443 12.7645 15.7595C13.3653 15.0747 13.7907 14.2481 14.0027 13.3537C14.2787 12.445 14.7333 12.2895 15.568 12.5514C15.4289 13.6598 15.046 14.7215 14.4481 15.6566C13.8502 16.5917 13.0528 17.3759 12.116 17.9502C10.5686 18.8164 8.79311 19.1597 7.04351 18.9311C5.29391 18.7024 3.65975 17.9136 2.37468 16.6773C1.10405 15.2138 0.336117 13.3653 0.188016 11.4135C0.188016 11.0929 0.0813493 10.7927 0.00934932 10.5049C0.0028587 9.97778 -0.000252476 9.45067 1.5995e-05 8.92355L0.00268266 8.92219ZM1.50535 8.53198H14.3773C14.2973 4.33516 11.7093 1.3581 8.25735 1.33081C4.41468 1.27624 1.66535 4.18781 1.49602 8.51288L1.50535 8.53198Z" fill="#505050"/>
</svg>
