<svg width="34" height="33" viewBox="0 0 34 33" fill="none" xmlns="http://www.w3.org/2000/svg">
<path d="M17 0C7.6075 0 0 7.57545 0 16.9189C0 24.3957 4.8705 30.7361 11.6237 32.9708C12.4737 33.1301 12.7854 32.607 12.7854 32.1572C12.7854 31.7554 12.7712 30.6909 12.7642 29.281C8.03533 30.3018 7.038 27.0111 7.038 27.0111C6.2645 25.0583 5.14675 24.5367 5.14675 24.5367C3.60683 23.4877 5.26575 23.5089 5.26575 23.5089C6.97283 23.6273 7.86958 25.2515 7.86958 25.2515C9.38542 27.8387 11.849 27.0914 12.8208 26.6586C12.9738 25.5645 13.4116 24.8187 13.8975 24.3957C10.1221 23.9727 6.154 22.5177 6.154 16.0349C6.154 14.1879 6.81275 12.6793 7.90358 11.495C7.71233 11.0678 7.13858 9.34771 8.05233 7.01713C8.05233 7.01713 9.47608 6.56314 12.7273 8.75132C14.0873 8.37487 15.5323 8.18876 16.9773 8.1803C18.4223 8.18876 19.8673 8.37487 21.2273 8.75132C24.4573 6.56314 25.8811 7.01713 25.8811 7.01713C26.7948 9.34771 26.2211 11.0678 26.0511 11.495C27.1348 12.6793 27.7936 14.1879 27.7936 16.0349C27.7936 22.5346 23.8198 23.9657 20.0373 24.3816C20.6323 24.8892 21.1848 25.9268 21.1848 27.5116C21.1848 29.7759 21.1636 31.5947 21.1636 32.1446C21.1636 32.5887 21.4611 33.1174 22.3323 32.9482C29.1337 30.729 34 24.3844 34 16.9189C34 7.57545 26.3882 0 17 0Z" fill="#505050"/>
</svg>
