<svg width="29" height="33" viewBox="0 0 29 33" fill="none" xmlns="http://www.w3.org/2000/svg">
<path d="M14.5014 0C13.7313 0 12.9928 0.309795 12.4483 0.861234C11.9037 1.41267 11.5978 2.16058 11.5978 2.94044C11.5978 3.72029 11.9037 4.4682 12.4483 5.01964C12.9928 5.57108 13.7313 5.88088 14.5014 5.88088C15.2714 5.88088 16.0099 5.57108 16.5545 5.01964C17.099 4.4682 17.4049 3.72029 17.4049 2.94044C17.4049 2.16058 17.099 1.41267 16.5545 0.861234C16.0099 0.309795 15.2714 0 14.5014 0ZM26.0965 6.78013C25.3264 6.78013 24.5879 7.08992 24.0434 7.64136C23.4988 8.1928 23.1929 8.94071 23.1929 9.72056C23.1929 10.5004 23.4988 11.2483 24.0434 11.7998C24.5879 12.3512 25.3264 12.661 26.0965 12.661C26.8665 12.661 27.6051 12.3512 28.1496 11.7998C28.6941 11.2483 29 10.5004 29 9.72056C29 8.94071 28.6941 8.1928 28.1496 7.64136C27.6051 7.08992 26.8665 6.78013 26.0965 6.78013ZM26.0965 20.3404C25.3264 20.3404 24.5879 20.6502 24.0434 21.2016C23.4988 21.753 23.1929 22.501 23.1929 23.2808C23.1929 24.0607 23.4988 24.8086 24.0434 25.36C24.5879 25.9115 25.3264 26.2212 26.0965 26.2212C26.8665 26.2212 27.6051 25.9115 28.1496 25.36C28.6941 24.8086 29 24.0607 29 23.2808C29 22.501 28.6941 21.753 28.1496 21.2016C27.6051 20.6502 26.8665 20.3404 26.0965 20.3404ZM14.5014 27.1205C13.7315 27.1205 12.9931 27.4302 12.4487 27.9815C11.9043 28.5328 11.5985 29.2806 11.5985 30.0602C11.5985 30.8399 11.9043 31.5877 12.4487 32.139C12.9931 32.6903 13.7315 33 14.5014 33C15.2712 33 16.0096 32.6903 16.554 32.139C17.0984 31.5877 17.4042 30.8399 17.4042 30.0602C17.4042 29.2806 17.0984 28.5328 16.554 27.9815C16.0096 27.4302 15.2712 27.1205 14.5014 27.1205ZM2.90353 20.3417C2.52232 20.3417 2.14485 20.4178 1.79266 20.5655C1.44047 20.7133 1.12046 20.9298 0.850904 21.2028C0.58135 21.4758 0.367527 21.7998 0.221645 22.1565C0.0757633 22.5132 0.000678822 22.8954 0.000678822 23.2815C0.000678822 23.6676 0.0757633 24.0498 0.221645 24.4065C0.367527 24.7632 0.58135 25.0872 0.850904 25.3602C1.12046 25.6332 1.44047 25.8497 1.79266 25.9975C2.14485 26.1452 2.52232 26.2213 2.90353 26.2212C3.67359 26.2212 4.41212 25.9115 4.95664 25.36C5.50115 24.8086 5.80706 24.0607 5.80706 23.2808C5.80706 22.501 5.50115 21.753 4.95664 21.2016C4.41212 20.6502 3.67359 20.3417 2.90353 20.3417ZM2.90353 6.78013C2.13347 6.78013 1.39494 7.08992 0.850424 7.64136C0.305907 8.1928 0 8.94071 0 9.72056C0 10.5004 0.305907 11.2483 0.850424 11.7998C1.39494 12.3512 2.13347 12.661 2.90353 12.661C3.67359 12.661 4.41212 12.3512 4.95664 11.7998C5.50115 11.2483 5.80706 10.5004 5.80706 9.72056C5.80706 8.94071 5.50115 8.1928 4.95664 7.64136C4.41212 7.08992 3.67359 6.78013 2.90353 6.78013ZM14.5014 2.13538L2.21516 9.31837V23.6844L14.5014 30.8674L26.7848 23.6844V9.31837L14.5014 2.13538ZM14.5014 4.33675L24.9017 22.583H4.09834L14.5014 4.33675ZM12.6182 4.84688L3.59598 20.6759V10.1241L12.6182 4.84688ZM16.3845 4.84688L25.4081 10.1241V20.6759L16.3845 4.84688ZM5.47645 23.98H23.5249L14.5014 29.2545L5.47645 23.98Z" fill="#E10098"/>
</svg>
