<svg width="249" height="335" viewBox="0 0 249 335" fill="none" xmlns="http://www.w3.org/2000/svg">
<path d="M16.0109 81.4201C16.0109 81.4201 21.7479 103.546 22.5659 110.923C23.3859 118.298 7.81592 134.688 7.81592 142.883C7.81592 151.08 11.0889 165.831 29.1209 173.208C47.1529 180.585 49.6089 199.432 49.6089 210.908C49.6089 222.381 43.0539 244.506 43.0539 244.506C43.0539 244.506 38.9579 299.414 61.0839 309.248C83.2079 319.081 78.2939 319.081 83.2079 319.081C88.1179 319.081 124.178 333.841 145.488 328.101C166.798 322.371 172.528 315.811 172.528 315.811C172.528 315.811 193.838 317.451 200.388 298.601C206.948 279.761 211.038 240.421 208.578 222.391C206.118 204.361 202.838 180.601 217.588 172.401C232.338 164.211 247.908 154.371 245.448 146.181C242.988 137.991 229.878 126.511 229.878 126.511C229.878 126.511 226.598 106.031 229.048 101.111C231.508 96.2011 246.258 83.9011 238.058 74.8911C229.868 65.8811 215.108 65.8811 215.108 65.8811L196.268 67.5111C196.268 67.5111 164.319 38.8201 122.519 40.4601C80.7489 42.1001 54.5189 67.5001 54.5189 67.5001C54.5189 67.5001 40.5889 62.5821 28.2959 67.5001C15.9959 72.4201 13.5459 67.5001 16.0059 81.4301L16.0109 81.4201Z" fill="#FBA919"/>
<path d="M90.8939 203.437C90.8939 203.437 74.6639 228.252 62.7609 245.862C60.9189 248.586 74.6649 248.775 74.6649 248.775L90.8949 203.437H90.8939ZM98.6209 151.99C98.6209 151.99 93.7289 164.194 91.0489 170.664C88.1389 177.698 77.0489 181.197 77.0489 181.197C77.0489 181.197 82.7989 175.167 82.7989 159.891C82.7989 153.491 91.0719 150.941 91.0719 150.941L98.6219 152.001L98.6209 151.99Z" fill="#E78724"/>
<path d="M93.6789 158.89C93.6789 158.89 83.6559 170.82 65.0459 164.14C46.4319 157.46 44.5239 133.594 44.5239 126.912C44.5239 120.23 79.8409 133.594 84.6139 136.458C89.3869 139.322 98.4509 150.775 93.6789 158.89ZM23.3789 31.4C23.3789 31.4 40.5589 28.056 52.0129 37.125C63.4709 46.192 66.8069 53.353 66.8069 53.353L47.5019 68.656C47.5019 68.656 38.1739 64.33 35.3089 51.92C32.4469 39.512 34.3559 33.786 23.3789 31.4Z" fill="#E78724"/>
<path d="M88.669 124.427C81.271 113.927 69.081 109.347 59.349 108.587C42.752 107.29 34.873 113.157 34.873 113.157C34.873 113.157 62.053 114.307 69.887 124.597C84.471 143.747 105.747 145.303 109.149 141.097C105.215 141.293 100.887 139.344 96.255 134.964C93.361 132.224 91.015 127.76 88.668 124.427H88.669ZM42.785 161.554C42.785 161.554 12.629 151.187 18.359 140.69C24.086 130.188 19.529 124.467 19.529 124.467C19.529 124.467 2.68897 137.037 6.97897 150.399C9.61697 158.599 14.041 164.539 38.334 175.919C49.986 197.559 40.74 236.519 41.294 236.699C42.217 236.999 57.654 229.069 56.6 192.619C56.28 181.419 55.39 166.149 42.79 161.539L42.785 161.554ZM82.303 50.074C69.658 56.498 52.335 65.444 52.335 65.444L59.153 68.854C58.503 69.909 58.188 70.538 58.188 70.538L65.178 73.72C65.178 73.72 82.258 86.095 92.728 94.05C89.238 83.305 78.988 66.423 78.988 66.423C78.988 66.423 76.078 58.666 82.288 50.073L82.303 50.074ZM124.309 311.934C85.444 311.934 72.279 292.204 72.279 292.204L78.353 306.994C80.649 313.394 105.141 333.304 124.251 333.304" fill="#E78724"/>
<path d="M76.539 278.87C76.539 278.87 80.114 300.725 94.432 300.725C106.599 300.725 110.184 282.265 110.184 278.45L76.539 278.87ZM52.711 245.912C53.983 242.41 58.437 228.252 59.868 215.367C61.578 199.935 60.958 177.364 60.958 177.364C60.958 177.364 57.138 192.159 53.788 194.55C50.448 196.935 44.238 213.16 44.238 213.16C44.238 213.16 40.908 237.316 39.328 245.435C43.708 246.312 47.388 243.732 52.688 245.912H52.711ZM18.135 150.162C18.135 150.162 26.245 147.296 28.635 129.64C31.02 111.98 25.769 96.708 25.769 96.708C25.769 96.708 26.246 121.048 23.384 125.822C20.518 130.592 18.134 132.025 14.792 138.232C11.45 144.439 16.222 148.252 18.135 150.162Z" fill="#E78724"/>
<path d="M27.8189 35.576L26.1639 34.526C21.2809 34.692 27.8189 35.576 27.8189 35.576Z" fill="#FDC168"/>
<path d="M88.905 44.846C88.905 44.846 81.271 43.574 77.451 37.848C73.631 32.12 62.815 20.664 45.571 20.536C28.331 20.406 11.271 25.119 11.271 25.119L26.161 34.519C27.737 34.469 30.491 34.489 35.045 34.639C53.733 35.259 56.61 53.739 56.61 53.739L122.48 44.669" fill="#FBA919"/>
<path d="M95.2688 146.942C95.2688 146.942 86.3588 155.852 72.6768 152.986C58.9938 150.124 50.7198 144.078 50.0838 133.576C49.4478 123.076 52.9498 118.941 52.9498 118.941C52.9498 118.941 68.2298 123.721 75.5498 130.081C82.8698 136.451 88.2798 146.631 95.2798 146.951L95.2688 146.942Z" fill="white"/>
<path d="M84.4869 143.76C84.4869 143.76 76.7599 147.29 68.1229 144.414C56.8169 140.644 56.0629 128.884 56.0629 128.884C56.0629 128.884 49.1279 149.239 68.5729 153.157C84.1709 156.299 93.3949 147.261 93.3949 147.261L84.4869 143.761V143.76Z" fill="#C9C9C9"/>
<path d="M89.9788 40.528C89.1468 23.072 103.457 9.168 108.415 8.578C108.689 11.535 108.139 23.073 113.095 26.621C114.539 17.2 119.419 6.81 138.689 0C134.562 10.946 138.139 20.115 139.841 24.365C153.001 12.421 161.866 14.395 161.866 14.395C161.866 14.395 152.723 30.172 156.299 40.525C129.883 38.453 90.1068 43.331 89.9788 40.528ZM33.9758 67.118C27.6728 61.888 32.3708 57.035 31.8728 51.094C31.6028 47.934 31.3528 44.95 30.3098 43.304C24.5098 34.146 10.8298 31.367 10.6898 31.338L4.26978 30.08L8.51978 25.107C9.06978 24.463 26.5298 7.807 53.5498 16.527C72.4498 22.623 86.4398 43.291 86.9598 44.127L77.4898 48.582C77.3798 48.406 66.3198 28.979 50.1098 23.752C37.0098 19.522 24.9298 23.545 19.7498 26.182C25.2498 28.378 32.4398 32.377 36.7798 39.218C38.8298 42.448 39.1698 46.518 39.4998 50.456C39.9398 55.671 40.3498 60.594 44.1898 63.782L33.9898 67.117L33.9758 67.118ZM17.1418 143.45C17.1418 143.45 25.0818 133.603 27.4348 114.442C28.3588 106.895 26.7178 92.009 24.0918 86.282C24.5688 100.362 20.9898 114.442 20.9898 114.442C20.9898 114.442 18.5798 140.586 17.1498 143.45H17.1418Z" fill="#463014"/>
<path d="M59.0149 57.172C59.0109 57.152 56.4669 46.034 49.4149 40.422C39.4649 32.508 27.3169 36.718 27.1999 36.755L25.4399 31.305C26.0299 31.115 39.9199 26.74 52.7099 35.735C65.5799 44.781 67.1299 52.981 67.2599 53.887L59.0199 57.172H59.0149ZM42.0829 136.388C42.0829 136.388 37.9169 130.424 38.6659 123.865C39.0389 120.625 40.5399 117.301 43.2199 116.121C48.1999 113.941 50.4099 119.581 50.4099 119.581C50.4099 119.581 43.3999 121.311 42.0899 136.391L42.0829 136.388Z" fill="#463014"/>
<path d="M87.826 145.478C88 145.803 88.089 145.985 88.089 145.985C88.089 145.985 75.095 155.737 61.779 145.841C54.649 140.541 55.323 127.431 57.507 121.871C63.187 123.161 68.003 125.481 72.029 128.191C66.941 123.651 62.487 120.311 62.499 120.231L56.716 118.591L45.476 114.741C45.332 115.601 41.232 134.821 53.066 147.911C58.311 153.721 82.901 166.721 94.576 144.491L87.826 145.501V145.478Z" fill="#463014"/>
<path d="M86.6089 146.907C93.9249 158.042 112.384 151.679 112.066 139.907C112.066 139.907 99.7319 146.714 88.8359 134.181C82.4729 126.871 62.0859 106.691 34.4409 113.401C53.5329 117.601 78.8079 135.041 86.6089 146.921V146.907Z" fill="#463014"/>
<path d="M31.859 178.333C33.619 179.35 39.825 185.778 39.829 195.393C39.829 200.213 39.349 224.433 36.963 239.228C40.553 241.56 43.053 242.056 46.626 244.433C48.416 227.297 49.698 202.461 49.1 192.435C48.42 181.005 42.3 173.335 36.63 170.065C34.86 169.043 33 168.038 31.13 167.027C21.41 161.775 11.36 156.342 11.36 147.065C11.36 139.808 14.18 137.538 17.17 135.132L17.49 134.872C19.47 133.27 21.72 131.454 23.05 128.472C26.68 120.319 27.27 99.552 23.05 94.279C20.95 91.649 15.31 82.809 16.93 76.879C17.55 74.609 18.98 72.929 21.3 71.739C23.76 70.479 27.08 69.839 31.17 69.839C39.2 69.839 48.11 72.279 52.7 73.739C69.12 78.939 88.93 93.939 94.61 98.419L94.89 98.629L98.52 101.159L96.25 97.349C96.11 97.109 81.72 73.439 55.98 64.759C50.97 63.069 41.14 60.239 31.47 60.239C25.72 60.239 20.83 61.239 16.96 63.219C12.25 65.629 9.06 69.479 7.73 74.339C4.48 86.259 15.07 99.529 15.43 99.959C16.67 102.159 17.19 118.159 14.34 124.569C13.95 125.449 12.88 126.319 11.51 127.419C11.09 127.759 10.61 128.119 10.1 128.499C6.08 131.529 0 136.119 0 146.689C0 161.149 14.67 168.999 26.45 175.299C28.39 176.339 30.23 177.319 31.9 178.279L31.859 178.333Z" fill="#463014"/>
<path d="M33.9758 67.1171C27.6728 61.8871 32.3708 57.0351 31.8728 51.0941C31.6028 47.9341 31.3528 44.9501 30.3098 43.3041C24.5098 34.1461 10.8298 31.3671 10.6898 31.3381L4.26978 30.0801L8.51978 25.1071C9.06978 24.4631 26.5298 7.80705 53.5498 16.5271C72.4498 22.6231 86.4398 43.2911 86.9598 44.1271L77.4898 48.5821C77.3798 48.4061 66.3198 28.9791 50.1098 23.7521C37.0098 19.5221 24.9298 23.5451 19.7498 26.1821C25.2498 28.3781 32.4398 32.3771 36.7798 39.2181C38.8298 42.4481 39.1698 46.5181 39.4998 50.4561C39.9398 55.6711 40.3498 60.5941 44.1898 63.7821L33.9898 67.1171H33.9758Z" fill="#463014"/>
<path d="M33.771 68.188L33.364 67.851C28.69 63.981 29.519 60.151 30.322 56.461C30.687 54.761 31.072 52.991 30.916 51.181C30.661 48.141 30.416 45.271 29.5 43.821C23.98 35.101 10.63 32.311 10.5 32.281L2.47998 30.701L7.79998 24.491C7.89998 24.381 19.11 13.061 38.09 13.061C43.27 13.061 48.57 13.921 53.84 15.631C73.56 21.991 87.64 43.421 87.77 43.631L88.34 44.541L77.13 49.821L76.68 49.111C75.48 47.061 64.85 29.531 49.81 24.681C46.12 23.481 42.23 22.881 38.25 22.881C31.05 22.881 25.21 24.851 22.1 26.161C27.3 28.501 33.59 32.441 37.58 38.731C39.75 42.161 40.1 46.341 40.44 50.381C40.86 55.411 41.26 60.141 44.79 63.071L46.12 64.171L33.78 68.221L33.771 68.188Z" fill="#463014"/>
<path d="M59.0149 57.172C59.0109 57.152 56.4669 46.034 49.4149 40.422C39.4649 32.508 27.3169 36.718 27.1999 36.755L25.4399 31.305C26.0299 31.115 39.9199 26.74 52.7099 35.735C65.5799 44.781 67.1299 52.981 67.2599 53.887L59.0199 57.172H59.0149Z" fill="#463014"/>
<path d="M58.331 58.472L58.083 57.378C58.057 57.271 55.563 46.534 48.817 41.171C44.973 38.111 40.337 36.561 35.047 36.561C30.917 36.561 27.847 37.551 27.512 37.661L26.6 37.971L24.24 30.701L25.15 30.411C25.56 30.281 29.24 29.131 34.46 29.131C41.34 29.131 47.84 31.151 53.27 34.971C66.47 44.251 68.08 52.821 68.22 53.771L68.34 54.521L58.36 58.501L58.331 58.472ZM35.047 34.65C40.699 34.65 45.877 36.388 50.007 39.674C55.997 44.444 58.814 52.864 59.667 55.884L66.157 53.297C65.57 51.005 62.982 44.127 52.157 36.517C46.979 32.877 41.022 31.033 34.447 31.033C30.839 31.033 28.037 31.607 26.651 31.957L27.821 35.577C29.181 35.211 31.793 34.65 35.047 34.65ZM93.834 295.482C91.014 295.482 88.136 294.459 86.141 292.732C84.614 291.416 79.451 286.672 77.173 280.862C76.323 278.689 76.513 276.952 77.747 275.7C78.597 274.843 80.361 273.818 83.942 273.818L86.49 273.814C89.53 273.811 94.64 273.811 99.01 273.811H103.2C105.93 273.811 107.88 274.401 109 275.551C110.44 277.031 109.98 278.921 109.58 279.911C108.88 281.651 105.98 287.311 101.06 292.561C99.3 294.451 96.74 295.491 93.85 295.491L93.834 295.482ZM96.789 147.562L86.609 146.907C86.609 146.907 89.211 151.495 90.897 157.429C92.801 164.139 89.157 173.949 89.157 173.949C89.157 173.949 102.732 158.579 96.79 147.559L96.789 147.562ZM84.079 322.367C47.841 319.582 35.091 285.339 35.091 278.207L44.555 278.211C44.602 281.301 54.233 310.591 84.805 312.941L84.08 322.381L84.079 322.367Z" fill="#463014"/>
<path d="M73.8958 261.016C73.3298 257.743 73.2708 254.639 73.9618 251.589C71.2078 249.519 66.2658 248.749 62.5578 247.539C59.5178 245.619 44.0078 249.499 32.7478 235.879C18.6378 218.819 21.6078 208.629 21.6078 208.629C17.9878 212.649 14.4878 211.109 8.96782 229.849C3.44782 248.589 11.5578 261.649 26.6778 274.759C33.8178 280.949 43.9178 283.499 52.5978 284.479C49.6878 281.559 57.5678 281.259 62.9978 279.229C62.5578 274.839 63.2878 270.589 66.5578 267.159C68.5278 265.089 71.0678 263.859 73.6978 262.869C73.8478 262.529 73.9678 262.219 74.1078 261.889C74.0178 261.589 73.9378 261.289 73.8778 260.969L73.8958 261.016Z" fill="white"/>
<path d="M62.9389 279.15C62.6259 278.23 62.3889 277.29 62.1559 276.347C61.9059 275.317 60.6559 272.395 62.1959 275.73C61.7999 274.876 61.5409 273.996 61.3499 273.11C36.8699 273.078 15.5699 256.27 19.6899 220.93C16.4899 216.675 11.9999 229.51 11.9999 229.51C11.9999 229.51 -0.250061 265.098 31.3999 278.89C41.9499 283.49 51.2699 286.788 53.4699 285.457C58.0499 286.387 62.1899 283.194 63.7399 281.094C63.4529 280.457 63.1926 279.808 62.9599 279.149L62.9389 279.15Z" fill="#C9C9C9"/>
<path d="M73.4549 255.892C73.4929 252.909 74.1019 250.02 75.5449 247.142C75.6449 246.942 75.7619 246.752 75.8699 246.56C66.4499 246.48 55.5999 245.577 46.3599 241.88C36.2099 237.817 23.5099 223.92 21.3199 207.592C21.3199 207.592 2.19993 222.35 7.81993 253.938C13.0899 283.6 37.9099 293.27 66.2199 294.906C66.2399 294.714 63.0399 288.106 64.0499 284.061C47.9799 285.231 29.9999 279.021 21.3299 264.741C13.3899 251.681 15.6199 229.371 18.8799 226.101C26.8499 251.231 55.4999 256.341 73.4699 255.901L73.4549 255.892Z" fill="#463014"/>
<path d="M76.4209 237.902C71.3269 252.852 60.9209 264.949 60.9209 264.949C60.9209 264.949 75.2349 264.289 76.0249 261.759C76.6099 259.889 88.9489 231.009 93.6849 197.169C89.2299 204.489 76.8569 236.609 76.4209 237.889V237.902Z" fill="#463014"/>
<path d="M157.512 203.437C157.512 203.437 173.737 228.252 185.645 245.862C187.487 248.586 173.737 248.775 173.737 248.775L157.512 203.437ZM149.782 151.99C149.782 151.99 154.676 164.194 157.352 170.664C160.262 177.698 171.352 181.197 171.352 181.197C171.352 181.197 165.602 175.167 165.602 159.891C165.602 153.491 157.33 150.941 157.33 150.941L149.79 152.001L149.782 151.99Z" fill="#E78724"/>
<path d="M154.724 158.89C154.724 158.89 164.747 170.82 183.362 164.14C201.977 157.46 203.884 133.594 203.884 126.912C203.884 120.23 168.567 133.594 163.794 136.458C159.019 139.322 149.954 150.775 154.724 158.89ZM225.024 31.4C225.024 31.4 207.844 28.056 196.388 37.125C184.928 46.192 181.588 53.353 181.588 53.353L200.888 68.655C200.888 68.655 210.218 64.33 213.078 51.92C215.938 39.512 214.028 33.786 225.008 31.4H225.024Z" fill="#E78724"/>
<path d="M159.737 124.427C167.134 113.927 179.32 109.347 189.057 108.587C205.654 107.29 213.529 113.157 213.529 113.157C213.529 113.157 186.349 114.307 178.514 124.597C163.929 143.747 142.66 145.303 139.258 141.097C143.188 141.293 147.518 139.344 152.148 134.964C155.038 132.224 157.388 127.76 159.728 124.427H159.737ZM205.619 161.554C205.619 161.554 235.773 151.187 230.046 140.689C224.32 130.179 228.874 124.459 228.874 124.459C228.874 124.459 245.717 137.029 241.422 150.389C238.785 158.589 234.362 164.529 210.068 175.909C198.408 197.549 207.658 236.509 207.108 236.689C206.178 236.989 190.748 229.059 191.798 192.609C192.118 181.419 193.008 166.139 205.608 161.529L205.619 161.554ZM166.103 50.074C178.743 56.498 196.07 65.444 196.07 65.444L189.26 68.854C189.91 69.909 190.23 70.538 190.23 70.538L183.24 73.72C183.24 73.72 166.16 86.095 155.69 94.05C159.18 83.305 169.42 66.423 169.42 66.423C169.42 66.423 172.33 58.666 166.12 50.073L166.103 50.074ZM124.097 311.934C162.957 311.934 176.122 292.204 176.122 292.204L170.052 306.994C167.756 313.394 143.262 333.304 124.156 333.304" fill="#E78724"/>
<path d="M171.867 278.87C171.867 278.87 168.287 300.725 153.973 300.725C141.808 300.725 138.223 282.265 138.223 278.45L171.867 278.87ZM195.694 245.912C194.422 242.41 189.968 228.252 188.534 215.367C186.818 199.935 187.447 177.364 187.447 177.364C187.447 177.364 191.267 192.159 194.603 194.55C197.947 196.935 204.149 213.16 204.149 213.16C204.149 213.16 207.473 237.316 209.055 245.435C204.678 246.312 200.995 243.732 195.695 245.912H195.694ZM230.274 150.162C230.274 150.162 222.158 147.296 219.774 129.64C217.388 111.98 222.638 96.708 222.638 96.708C222.638 96.708 222.158 121.048 225.018 125.822C227.878 130.595 230.268 132.025 233.608 138.232C236.948 144.437 232.168 148.252 230.268 150.162H230.274Z" fill="#E78724"/>
<path d="M220.584 35.576L222.244 34.526C227.127 34.692 220.584 35.576 220.584 35.576Z" fill="#FDC168"/>
<path d="M159.497 44.846C159.497 44.846 167.135 43.574 170.951 37.848C174.771 32.12 185.591 20.664 202.834 20.536C220.076 20.406 237.134 25.119 237.134 25.119L222.244 34.519C220.668 34.469 217.914 34.489 213.356 34.639C194.671 35.259 191.794 53.739 191.794 53.739L125.934 44.669" fill="#FBA919"/>
<path d="M153.135 146.942C153.135 146.942 162.045 155.852 175.725 152.986C189.409 150.124 197.682 144.078 198.319 133.576C198.954 123.076 195.456 118.941 195.456 118.941C195.456 118.941 180.181 123.721 172.863 130.081C165.545 136.441 160.137 146.631 153.135 146.951V146.942Z" fill="white"/>
<path d="M163.915 143.76C163.915 143.76 171.645 147.29 180.279 144.414C191.589 140.644 192.341 128.884 192.341 128.884C192.341 128.884 199.273 149.239 179.827 153.157C164.233 156.299 155.007 147.261 155.007 147.261L163.915 143.761V143.76Z" fill="#C9C9C9"/>
<path d="M214.429 67.1171C220.731 61.8871 216.037 57.0351 216.535 51.0941C216.801 47.9341 217.051 44.9501 218.095 43.3041C223.895 34.1461 237.577 31.3671 237.718 31.3381L244.138 30.0801L239.888 25.1071C239.338 24.4631 221.878 7.80705 194.858 16.5271C175.958 22.6231 161.968 43.2911 161.448 44.1271L170.918 48.5821C171.028 48.4061 182.088 28.9791 198.308 23.7521C211.408 19.5221 223.488 23.5451 228.658 26.1821C223.158 28.3781 215.968 32.3771 211.628 39.2181C209.578 42.4481 209.238 46.5181 208.908 50.4561C208.468 55.6711 208.048 60.5941 204.208 63.7821L214.398 67.1171H214.429ZM231.259 143.45C231.259 143.45 223.322 133.603 220.969 114.442C220.046 106.895 221.684 92.0091 224.309 86.2821C223.832 100.362 227.414 114.442 227.414 114.442C227.414 114.442 229.828 140.586 231.259 143.45Z" fill="#463014"/>
<path d="M189.389 57.172C189.394 57.152 191.939 46.034 198.992 40.422C208.94 32.508 221.089 36.718 221.202 36.755L222.972 31.305C222.382 31.115 208.498 26.74 195.698 35.735C182.818 44.781 181.278 52.981 181.138 53.887L189.378 57.172H189.389ZM206.322 136.388C206.322 136.388 210.488 130.424 209.735 123.865C209.365 120.625 207.865 117.301 205.185 116.121C200.205 113.941 197.997 119.581 197.997 119.581C197.997 119.581 205.007 121.311 206.322 136.391V136.388Z" fill="#463014"/>
<path d="M160.579 145.478C160.406 145.803 160.316 145.985 160.316 145.985C160.316 145.985 173.306 155.737 186.623 145.841C193.756 140.541 193.083 127.431 190.893 121.871C185.218 123.161 180.403 125.481 176.373 128.191C181.463 123.651 185.917 120.311 185.901 120.231L191.688 118.591L202.918 114.741C203.058 115.601 207.158 134.821 195.318 147.911C190.068 153.721 165.478 166.721 153.808 144.491L160.558 145.501L160.579 145.478Z" fill="#463014"/>
<path d="M161.793 146.907C154.477 158.042 136.023 151.679 136.343 139.907C136.343 139.907 148.673 146.714 159.569 134.181C165.931 126.871 186.321 106.691 213.966 113.401C194.876 117.601 169.598 135.041 161.793 146.921V146.907Z" fill="#463014"/>
<path d="M216.549 178.333C214.789 179.35 208.579 185.778 208.579 195.393C208.575 200.213 209.056 224.433 211.445 239.228C207.855 241.56 205.355 242.056 201.781 244.433C199.991 227.297 198.705 202.461 199.307 192.435C199.99 181.005 206.107 173.335 211.781 170.065C213.558 169.043 215.416 168.038 217.291 167.027C227.011 161.775 237.061 156.342 237.061 147.065C237.061 139.808 234.237 137.538 231.251 135.132L230.931 134.872C228.951 133.27 226.703 131.454 225.378 128.472C221.748 120.319 221.148 99.552 225.368 94.279C227.468 91.649 233.108 82.809 231.488 76.879C230.868 74.609 229.438 72.929 227.118 71.739C224.658 70.479 221.338 69.839 217.248 69.839C209.218 69.839 200.308 72.279 195.718 73.739C179.298 78.939 159.488 93.939 153.798 98.419C153.638 98.539 153.538 98.619 153.518 98.629L149.878 101.159L152.148 97.349C152.288 97.109 166.678 73.439 192.418 64.759C197.428 63.069 207.258 60.239 216.928 60.239C222.678 60.239 227.558 61.239 231.428 63.219C236.138 65.629 239.328 69.479 240.658 74.339C243.908 86.259 233.328 99.529 232.958 99.959C231.718 102.159 231.198 118.159 234.048 124.569C234.438 125.449 235.518 126.319 236.878 127.419C237.308 127.759 237.778 128.119 238.288 128.499C242.308 131.529 248.388 136.119 248.388 146.689C248.388 161.149 233.728 168.999 221.948 175.299C220.018 176.339 218.168 177.319 216.508 178.279L216.549 178.333Z" fill="#463014"/>
<path d="M199.059 65.415C196.727 61.465 190.763 53.8379 177.017 47.1349C161.677 39.6589 143.923 35.8649 124.24 35.8549V35.851H124.17V35.861C104.49 35.871 86.7299 39.6709 71.3899 47.1409C57.6499 53.8509 51.6899 61.4709 49.3499 65.4209L48.3499 66.7509L60.1189 69.37L60.4968 68.9L60.6938 68.466C60.8738 67.686 62.4539 63.4859 75.5779 57.0859C89.6079 50.2439 105.968 46.7759 124.208 46.7659C142.448 46.7739 158.808 50.2429 172.838 57.0859C185.958 63.4859 187.548 67.6859 187.728 68.4639L187.918 68.897L188.288 69.3669L200.058 66.747L199.058 65.4229L199.059 65.415Z" fill="#463014"/>
<path d="M214.429 67.1171C220.731 61.8871 216.037 57.0351 216.535 51.0941C216.801 47.9341 217.051 44.9501 218.095 43.3041C223.895 34.1461 237.577 31.3671 237.718 31.3381L244.138 30.0801L239.888 25.1071C239.338 24.4631 221.878 7.80705 194.858 16.5271C175.958 22.6231 161.968 43.2911 161.448 44.1271L170.918 48.5821C171.028 48.4061 182.088 28.9791 198.308 23.7521C211.408 19.5221 223.488 23.5451 228.658 26.1821C223.158 28.3781 215.968 32.3771 211.628 39.2181C209.578 42.4481 209.238 46.5181 208.908 50.4561C208.468 55.6711 208.048 60.5941 204.208 63.7821L214.398 67.1171H214.429Z" fill="#463014"/>
<path d="M202.297 64.1471L203.623 63.0431C207.153 60.1151 207.549 55.3861 207.975 50.3591C208.317 46.3091 208.67 42.1291 210.837 38.6991C214.819 32.4091 221.123 28.4791 226.317 26.1291C223.207 24.8091 217.365 22.8491 210.161 22.8491C206.181 22.8491 202.299 23.4491 198.605 24.6391C183.565 29.4891 172.939 47.0091 171.735 49.0691L171.285 49.7791L160.075 44.5091L160.645 43.5991C160.778 43.3891 174.845 21.9591 194.57 15.5991C199.85 13.8891 205.15 13.0291 210.33 13.0291C229.32 13.0291 240.53 24.3491 240.62 24.4591L245.94 30.6791L237.92 32.2491C237.79 32.2691 224.44 35.0691 218.92 43.7891C218.01 45.2391 217.77 48.1091 217.51 51.1491C217.36 52.9591 217.74 54.7191 218.11 56.4291C218.91 60.1191 219.74 63.9491 215.07 67.8191L214.67 68.1491L202.33 64.0991L202.297 64.1471Z" fill="#463014"/>
<path d="M189.389 57.172C189.394 57.152 191.939 46.034 198.992 40.422C208.94 32.508 221.089 36.718 221.202 36.755L222.972 31.305C222.382 31.115 208.498 26.74 195.698 35.735C182.818 44.781 181.278 52.981 181.138 53.887L189.378 57.172H189.389Z" fill="#463014"/>
<path d="M180.094 54.495L180.204 53.747C180.344 52.801 181.957 44.227 195.15 34.953C200.58 31.139 207.09 29.121 213.96 29.121C219.18 29.121 222.86 30.271 223.27 30.401L224.18 30.701L221.82 37.971L220.91 37.671C220.57 37.561 217.5 36.571 213.38 36.571C208.09 36.571 203.46 38.131 199.62 41.191C192.88 46.561 190.38 57.291 190.36 57.401L190.12 58.501L180.14 54.521L180.094 54.495ZM220.584 35.575L221.759 31.957C220.373 31.605 217.567 31.033 213.959 31.033C207.385 31.033 201.426 32.879 196.249 36.517C185.422 44.127 182.834 51.005 182.247 53.297L188.744 55.884C189.594 52.864 192.408 44.442 198.4 39.674C202.54 36.388 207.71 34.65 213.36 34.65C216.61 34.65 219.23 35.21 220.59 35.576L220.584 35.575ZM147.361 292.56C142.444 287.302 139.535 281.645 138.831 279.907C138.431 278.917 137.971 277.03 139.414 275.547C140.538 274.4 142.486 273.811 145.21 273.811H149.41C153.78 273.811 158.89 273.811 161.93 273.821L164.48 273.831C168.06 273.831 169.83 274.861 170.67 275.711C171.91 276.961 172.1 278.701 171.25 280.881C168.97 286.691 163.81 291.441 162.28 292.751C160.28 294.481 157.41 295.501 154.59 295.501C151.7 295.501 149.14 294.461 147.38 292.581L147.361 292.56ZM151.617 147.562L161.793 146.907C161.793 146.907 159.193 151.495 157.508 157.429C155.598 164.139 159.248 173.949 159.248 173.949C159.248 173.949 145.668 158.579 151.608 147.559L151.617 147.562Z" fill="#463014"/>
<path d="M124.204 111.21C117.714 111.21 109.254 111.033 102.906 106.47C102.906 106.47 111.218 121.042 124.193 121.042L124.203 119.198L124.215 121.042C137.191 121.042 145.502 106.472 145.502 106.472C139.154 111.032 130.687 111.212 124.204 111.212V111.21Z" fill="#E78724"/>
<path d="M142.071 111.14C135.561 115.08 129.749 116.445 124.204 116.566C118.658 116.446 112.847 115.08 106.337 111.141C106.337 111.141 115.817 122.711 124.157 122.801V122.811H124.203C124.218 122.811 124.233 122.821 124.25 122.821C132.59 122.731 142.08 111.171 142.08 111.171L142.071 111.14ZM164.326 322.367L163.6 312.932C194.17 310.582 203.8 281.289 203.85 278.206H213.32C213.33 285.336 200.57 319.582 164.34 322.366L164.326 322.367Z" fill="#463014"/>
<path d="M174.509 261.016C175.077 257.743 175.132 254.639 174.442 251.589C177.2 249.519 182.138 248.749 185.846 247.539C188.878 245.619 204.398 249.499 215.656 235.879C229.759 218.819 226.786 208.629 226.786 208.629C230.406 212.649 233.908 211.109 239.424 229.849C244.944 248.589 236.829 261.649 221.712 274.759C214.572 280.949 204.474 283.499 195.79 284.479C198.7 281.559 190.83 281.259 185.4 279.229C185.84 274.839 185.11 270.589 181.84 267.159C179.88 265.089 177.34 263.859 174.71 262.869C174.56 262.529 174.44 262.219 174.3 261.889C174.39 261.589 174.47 261.289 174.53 260.969L174.509 261.016Z" fill="white"/>
<path d="M185.461 279.15C185.779 278.23 186.011 277.29 186.245 276.347C186.5 275.317 187.75 272.395 186.207 275.73C186.603 274.876 186.862 273.996 187.053 273.11C211.535 273.078 232.833 256.27 228.715 220.93C231.92 216.675 236.411 229.51 236.411 229.51C236.411 229.51 248.668 265.098 217.014 278.89C206.467 283.49 197.147 286.788 194.947 285.457C190.362 286.387 186.227 283.194 184.68 281.094C184.97 280.449 185.24 279.804 185.47 279.149L185.461 279.15Z" fill="#C9C9C9"/>
<path d="M174.946 255.892C174.912 252.909 174.299 250.02 172.861 247.142C172.759 246.942 172.641 246.752 172.535 246.56C181.955 246.48 192.805 245.577 202.045 241.88C212.199 237.817 224.902 223.92 227.085 207.592C227.085 207.592 246.211 222.35 240.591 253.938C235.311 283.6 210.494 293.27 182.187 294.906C182.172 294.714 185.372 288.106 184.36 284.061C200.43 285.231 218.41 279.021 227.09 264.741C235.03 251.681 232.8 229.371 229.54 226.101C221.58 251.231 192.92 256.341 174.95 255.901L174.946 255.892Z" fill="#463014"/>
<path d="M186.377 263.332C182.995 259.676 176.777 255.318 162.44 255.318L124.26 255.295H124.17C113.17 255.303 85.9799 255.318 85.9799 255.318C71.6499 255.318 65.4299 259.678 62.0499 263.332C57.1199 268.652 56.3499 276.055 59.7599 285.307C68.8199 309.933 81.5599 334.952 124.18 334.987V334.991H124.23C124.25 334.991 124.26 335.001 124.28 335.001C166.9 334.971 179.64 309.951 188.7 285.321C192.11 276.071 191.34 268.671 186.41 263.351L186.377 263.332ZM179.741 283.58C175.424 295.946 163.821 325.878 124.201 325.93C84.5769 325.878 72.9789 295.947 68.6609 283.58C66.2729 276.72 66.4549 271.642 69.2209 268.488C71.1109 266.332 75.4509 263.758 85.3409 263.758L95.6739 263.755C103.297 263.748 112.868 263.74 124.204 263.735C135.534 263.74 145.11 263.748 152.731 263.755L163.061 263.759C172.954 263.759 177.293 266.329 179.183 268.479C181.946 271.629 182.13 276.709 179.741 283.569V283.58Z" fill="#463014"/>
</svg>
