<svg width="33" height="33" viewBox="0 0 33 33" fill="none" xmlns="http://www.w3.org/2000/svg">
<path d="M1.92775 0C0.859375 0 0 0.859375 0 1.92775V31.0723C0 32.1406 0.859375 33 1.92775 33H31.0723C32.1406 33 33 32.1406 33 31.0723V1.92775C33 0.859375 32.1406 0 31.0723 0H1.92775ZM5.8905 7.51438H10.0677V25.4829H5.8905V24.1271H8.45212V8.86875H5.8905V7.51438ZM22.9322 7.51438H27.1095V8.86875H24.5479V24.1285H27.1095V25.4843H22.9322V7.51438ZM12.1302 12.3956H13.9865C14.135 13.002 14.3083 13.6524 14.5063 14.3454C14.7166 15.026 14.9325 15.7066 15.1553 16.3873C15.3904 17.0555 15.6255 17.7045 15.8606 18.3356C16.0957 18.9681 16.3185 19.5305 16.5289 20.0255C16.7393 19.5305 16.962 18.9667 17.1971 18.3356C17.4322 17.7045 17.6619 17.0555 17.8846 16.3873C18.1184 15.7066 18.3356 15.026 18.5336 14.3454C18.744 13.6524 18.9241 13.002 19.0726 12.3956H20.8546C20.3864 14.1597 19.8162 15.8951 19.1469 17.5931C18.5681 19.0972 17.9426 20.583 17.2714 22.0481H15.7121C15.0397 20.581 14.4084 19.0954 13.8188 17.5931C13.1612 15.8928 12.5975 14.1577 12.1302 12.3956Z" fill="#E05E11"/>
</svg>
