<svg width="29" height="33" viewBox="0 0 29 33" fill="none" xmlns="http://www.w3.org/2000/svg">
<path d="M14.498 33C14.0606 33 13.6245 32.8845 13.2416 32.6604L9.24109 30.272C8.64427 29.9352 8.93587 29.8155 9.13208 29.7454C9.92919 29.4663 10.09 29.4017 10.9416 28.9149C11.0302 28.864 11.1473 28.8833 11.2386 28.9383L14.3126 30.7794C14.4244 30.8413 14.5811 30.8413 14.6833 30.7794L26.6672 23.8C26.779 23.7353 26.8498 23.6061 26.8498 23.4727V9.51662C26.8498 9.3805 26.7776 9.25262 26.6632 9.18387L14.6846 2.20995C14.5743 2.14532 14.4271 2.14532 14.3154 2.20995L2.33957 9.18525C2.22375 9.25262 2.15017 9.38462 2.15017 9.51662V23.4727C2.15017 23.6061 2.22375 23.7326 2.33957 23.7958L5.62205 25.7098C7.40295 26.6091 8.49439 25.5503 8.49439 24.4861V10.7074C8.49439 10.5121 8.64972 10.3595 8.84321 10.3595H10.3625C10.5519 10.3595 10.71 10.5135 10.71 10.7074V24.4861C10.71 26.8854 9.41549 28.2604 7.16177 28.2604C6.46958 28.2604 5.92318 28.2604 4.40117 27.5028L1.25631 25.6782C0.479632 25.2258 0 24.3788 0 23.4727V9.51662C0 8.6105 0.480994 7.76351 1.25631 7.31252L13.2403 0.32484C13.9992 -0.10828 15.0062 -0.10828 15.7584 0.32484L27.741 7.31252C28.5176 7.76489 29 8.6105 29 9.51662V23.4727C29 24.3788 28.5176 25.2231 27.741 25.6782L15.7584 32.6604C15.3768 32.8845 14.9422 33 14.498 33ZM24.1737 19.2405C24.1737 16.628 22.4241 15.9323 18.7411 15.4414C15.0198 14.9451 14.641 14.6879 14.641 13.8093C14.641 13.0833 14.9612 12.114 17.7178 12.114C20.18 12.114 21.0874 12.6488 21.4608 14.3236C21.4935 14.4817 21.6366 14.5972 21.7973 14.5972H23.3521C23.4488 14.5972 23.5401 14.5546 23.6055 14.4858C23.6709 14.4116 23.7063 14.3167 23.6968 14.2163C23.4556 11.3316 21.5562 9.98687 17.7178 9.98687C14.3004 9.98687 12.2619 11.4416 12.2619 13.8822C12.2619 16.529 14.2895 17.2605 17.5692 17.5878C21.4935 17.9755 21.7973 18.5544 21.7973 19.3326C21.7973 20.6843 20.7223 21.2604 18.1974 21.2604C15.0266 21.2604 14.329 20.4574 14.0946 18.8651C14.0674 18.6946 13.9229 18.5695 13.7499 18.5695H12.2006C12.0085 18.5695 11.8545 18.7235 11.8545 18.9174C11.8545 20.9551 12.9528 23.3834 18.1974 23.3834C21.9963 23.3847 24.1737 21.8764 24.1737 19.2405Z" fill="#417e38"/>
</svg>
