<svg width="36" height="19" viewBox="0 0 36 19" fill="none" xmlns="http://www.w3.org/2000/svg">
<path d="M10.515 6.80087H9.099L8.3265 10.786H9.5835C10.4175 10.786 11.0385 10.628 11.4465 10.3134C11.8545 9.99739 12.129 9.47216 12.2715 8.73473C12.4095 8.0274 12.3465 7.52776 12.0855 7.23731C11.823 6.94685 11.301 6.80087 10.515 6.80087ZM18 0C8.0595 0 0 4.25299 0 9.49925C0 14.7455 8.0595 19 18 19C27.9405 19 36 14.7455 36 9.49925C36 4.25299 27.9405 0 18 0ZM13.11 11.2134C12.7185 11.5896 12.2475 11.8726 11.7345 12.0426C11.2305 12.2051 10.587 12.2894 9.807 12.2894H8.0355L7.545 14.8192H5.478L7.323 5.29893H11.298C12.4935 5.29893 13.365 5.61346 13.914 6.24404C14.463 6.87311 14.628 7.752 14.409 8.88071C14.3251 9.32734 14.1707 9.75766 13.9515 10.1554C13.737 10.5392 13.4565 10.8928 13.11 11.2134ZM19.146 12.2894L19.9605 8.07707C20.055 7.5985 20.019 7.27042 19.8585 7.09735C19.698 6.92277 19.3545 6.83548 18.828 6.83548H17.19L16.134 12.2909H14.082L15.927 2.76911H17.9775L17.487 5.30044H19.314C20.4645 5.30044 21.2565 5.5021 21.693 5.90392C22.1295 6.30574 22.26 6.95739 22.0875 7.85885L21.2295 12.2894H19.146ZM30.5415 8.88071C30.459 9.32771 30.3045 9.75825 30.084 10.1554C29.8695 10.5392 29.589 10.8928 29.2425 11.2134C28.8508 11.5885 28.381 11.8717 27.867 12.0426C27.363 12.2051 26.7195 12.2894 25.938 12.2894H24.168L23.6775 14.8208H21.6105L23.4555 5.30044H27.429C28.6245 5.30044 29.496 5.61497 30.045 6.24554C30.594 6.87311 30.7605 7.752 30.5415 8.88071ZM26.649 6.80087H25.2345L24.4605 10.786H25.7175C26.553 10.786 27.174 10.628 27.5805 10.3134C27.9885 9.99739 28.263 9.47216 28.407 8.73473C28.545 8.0274 28.4805 7.52776 28.2195 7.23731C27.9585 6.94685 27.4335 6.80087 26.649 6.80087Z" fill="#777bb3"/>
</svg>
