<svg width="32" height="33" viewBox="0 0 32 33" fill="none" xmlns="http://www.w3.org/2000/svg">
<path d="M31.9652 20.2439C31.9463 20.1862 31.9202 20.1312 31.8875 20.0801C31.6955 19.7182 31.229 19.6101 30.4961 19.761C28.2127 20.23 27.3285 19.9413 27.0079 19.7347C28.8614 16.9184 30.3848 13.5169 31.2081 10.3439C31.5829 8.89914 32.3105 5.49876 31.3769 3.8379C31.3172 3.72422 31.2475 3.61608 31.1685 3.51478C29.3876 1.24933 26.7739 0.0341019 23.61 0.000689429C21.5456 -0.0210356 19.7835 0.476577 19.3062 0.659864C19.0698 0.615935 18.8322 0.578521 18.5937 0.547664C17.9958 0.439878 17.39 0.381106 16.7825 0.371939C15.1497 0.346639 13.7387 0.735214 12.5702 1.52776C11.3862 1.08625 5.95621 -0.73411 2.59575 1.63611C0.71891 2.95983 -0.147482 5.32579 0.0204652 8.66841C0.076954 9.79316 0.720567 13.2527 1.73626 16.5659C2.37131 18.6373 3.03274 20.281 3.71599 21.4911C4.47977 22.8581 5.27103 23.6819 6.08369 23.9517C6.70162 24.1567 7.64811 24.1498 8.65 22.9508C9.75657 21.626 10.8464 20.4403 11.3358 19.9163C11.9367 20.2401 12.5876 20.4148 13.2556 20.435C13.2557 20.4369 13.2559 20.4387 13.2561 20.4406C13.1398 20.5786 13.026 20.7186 12.9147 20.8605C12.4466 21.4521 12.3493 21.5751 10.8427 21.8839C10.4143 21.9719 9.27593 22.2056 9.25936 22.9998C9.25591 23.1681 9.3048 23.3173 9.38628 23.4491C9.69967 24.0309 10.6591 24.2875 10.7881 24.3196C12.6313 24.7782 14.2471 24.4461 15.4445 23.3864C15.4211 26.454 15.5516 29.4603 15.9216 30.3816C16.2271 31.1418 16.9737 33.0003 19.3319 33C19.6779 33 20.0588 32.96 20.4777 32.8706C22.9388 32.3452 24.0075 31.2624 24.4209 28.875C24.6285 27.6778 24.9755 24.9215 25.165 23.2359C25.1884 23.1392 25.2143 23.0699 25.2438 23.0486C25.2447 23.0479 25.34 22.9838 25.8338 23.0908C25.854 23.0951 25.8744 23.0983 25.895 23.1001L26.2456 23.1308L26.2662 23.1322C27.4358 23.185 28.9061 22.9361 29.7622 22.5398C30.6514 22.129 32.2561 21.1204 31.9652 20.2439ZM2.70099 16.3302C1.67411 12.981 1.07414 9.61318 1.02663 8.66883C0.876637 5.68315 1.6027 3.60484 3.18439 2.49136C5.72114 0.70579 9.86886 1.74776 11.6204 2.31261C11.616 2.31701 11.6113 2.321 11.6069 2.32554C8.81173 5.13604 8.87802 9.93754 8.88493 10.2311C8.88465 10.3443 8.89404 10.5046 8.9073 10.7251C8.95537 11.5327 9.04487 13.0357 8.80579 14.7379C8.58356 16.3197 9.07332 17.868 10.1494 18.9856C10.2607 19.1012 10.377 19.2099 10.4971 19.312C10.0182 19.8227 8.97733 20.9518 7.86951 22.2787C7.08544 23.2171 6.54403 23.0373 6.366 22.9782C5.82473 22.7985 5.24313 22.1709 4.656 21.16C3.9936 20.0064 3.32527 18.3664 2.70099 16.3302ZM10.9978 23.325C10.7615 23.2661 10.546 23.1693 10.4009 23.0813C10.5237 23.0271 10.7288 22.9573 11.0684 22.8876C12.8408 22.5244 13.1145 22.268 13.7123 21.5123C13.8493 21.339 14.0046 21.1428 14.2196 20.9037C14.2659 20.8521 14.3006 20.7912 14.3214 20.7252C14.5573 20.5172 14.6976 20.5741 14.9248 20.6679C15.1403 20.7567 15.3499 21.0254 15.4351 21.3213C15.4753 21.461 15.5206 21.7262 15.3727 21.9324C14.1238 23.6728 12.3044 23.6503 10.9978 23.325ZM13.8899 17.8414L13.8174 18.0353C13.6337 18.5257 13.4629 18.9815 13.3569 19.4144C12.4352 19.4116 11.5382 19.0195 10.8564 18.3111C9.98915 17.4104 9.59525 16.1574 9.77563 14.8731C10.0281 13.0747 9.93488 11.5088 9.88474 10.6675C9.87783 10.5497 9.87162 10.4466 9.86789 10.3652C10.2763 10.0048 12.1687 8.99539 13.5181 9.30311C14.134 9.44364 14.5092 9.86095 14.6652 10.5791C15.4726 14.2968 14.7721 15.8463 14.2091 17.0915C14.0931 17.3481 13.9836 17.5905 13.8899 17.8414ZM24.0603 24.1286C24.0369 24.3717 24.0108 24.6456 23.9749 24.948L23.7733 25.5507C23.7572 25.5984 23.7488 25.6484 23.7481 25.6988C23.74 26.3515 23.6735 26.591 23.5893 26.894C23.5017 27.2092 23.4024 27.5666 23.3415 28.3481C23.1896 30.2928 22.1286 31.4098 20.003 31.8633C17.9099 32.3103 17.5386 31.1802 17.2114 30.1834C17.1779 30.079 17.1425 29.9751 17.1052 29.8719C16.8077 29.0664 16.8413 27.9305 16.8878 26.3586C16.9106 25.587 16.8534 23.7443 16.4318 22.7201C16.4379 22.3169 16.4464 21.9076 16.458 21.4939C16.4594 21.4415 16.4523 21.3892 16.4369 21.339C16.4235 21.2424 16.4033 21.1468 16.3763 21.053C16.2069 20.4641 15.7944 19.9715 15.2994 19.7673C15.1027 19.6861 14.7417 19.5374 14.308 19.6478C14.4005 19.2683 14.5609 18.84 14.7348 18.376L14.8078 18.1808C14.89 17.9608 14.9929 17.733 15.102 17.4916C15.6911 16.1887 16.4978 14.4044 15.6222 10.373C15.2943 8.86311 14.199 8.12584 12.5389 8.29703C11.5435 8.3996 10.633 8.79945 10.1788 9.02866C10.0877 9.07462 9.99755 9.12234 9.90836 9.1718C10.0351 7.6505 10.5141 4.80741 12.3056 3.00864C12.4387 2.87514 12.5785 2.74848 12.7245 2.62914C12.797 2.61506 12.8653 2.58479 12.9244 2.54059C13.9635 1.75601 15.2647 1.37101 16.7943 1.3959C17.3594 1.40511 17.9016 1.44251 18.4161 1.50728C21.0941 1.99458 22.8964 3.49663 23.9902 4.78349C25.1149 6.10665 25.7238 7.4393 25.9669 8.15815C24.1394 7.97308 22.8961 8.3325 22.2659 9.22928C20.8949 11.1803 23.0158 14.967 24.0353 16.7868C24.2221 17.1204 24.3836 17.4086 24.4343 17.5311C24.7662 18.3321 25.196 18.8666 25.5098 19.257C25.6059 19.3766 25.6993 19.4927 25.7701 19.5939C25.2166 19.7527 24.2221 20.1198 24.3127 21.9548C24.2957 22.1697 24.2543 22.5693 24.1975 23.0751C24.1339 23.3607 24.1006 23.708 24.0603 24.1286ZM25.2902 21.8996C25.2342 20.7562 25.6618 20.6367 26.1143 20.5102C26.1769 20.4931 26.2391 20.4745 26.3008 20.4544C26.3591 20.5058 26.4211 20.5532 26.4861 20.596C27.2738 21.1137 28.6715 21.1753 30.6389 20.7808C30.3605 21.024 29.9223 21.33 29.3223 21.6073C28.7563 21.869 27.809 22.0652 26.909 22.1073C25.915 22.1535 25.4092 21.9963 25.2902 21.8996ZM26.0767 9.15173C26.0686 9.63408 26.0019 10.0719 25.9312 10.5291C25.8552 11.0208 25.7765 11.5292 25.7566 12.1463C25.737 12.7469 25.8124 13.3713 25.8853 13.9752C26.0325 15.1948 26.1836 16.4506 25.5987 17.6896C25.5016 17.5183 25.4151 17.3413 25.3396 17.1595C25.2668 16.984 25.1091 16.7021 24.8906 16.3122C24.0404 14.794 22.049 11.239 23.0685 9.78835C23.5926 9.04214 24.9203 9.00996 26.0767 9.15173ZM26.3922 18.7956C26.3532 18.7461 26.3139 18.6969 26.2744 18.6479L26.2253 18.5868C27.2283 16.9375 27.0322 15.3058 26.8576 13.8589C26.7859 13.2652 26.7183 12.7044 26.7354 12.1778C26.7532 11.6194 26.8274 11.1407 26.8991 10.6776C26.9873 10.1069 27.077 9.51665 27.0522 8.82063C27.0707 8.74761 27.0782 8.6614 27.0685 8.5591C27.0054 7.89154 26.24 5.89435 24.68 4.08623C23.8408 3.11369 22.6226 2.02758 20.9662 1.28191C21.6915 1.13534 22.6689 1.0021 23.7622 1.0263C26.5956 1.089 28.8374 2.14486 30.4251 4.1646C30.4589 4.20845 30.4896 4.25447 30.5172 4.30238C31.516 6.16633 30.1358 12.9306 26.3922 18.7956ZM14.2152 10.3858C14.1807 10.6325 13.7885 10.9667 13.3574 10.9667C13.32 10.9667 13.2826 10.9642 13.2456 10.959C12.9869 10.9233 12.7256 10.761 12.5469 10.5251C12.4836 10.4419 12.3807 10.2803 12.4012 10.134C12.4088 10.0789 12.4372 9.99859 12.5289 9.92943C12.6922 9.8065 13.0148 9.76085 13.3709 9.81021C13.8077 9.87085 14.2584 10.0767 14.2152 10.3858ZM25.1684 9.82011C25.1837 9.92901 25.1007 10.0965 24.9569 10.2466C24.8626 10.3452 24.6641 10.5163 24.3935 10.5535C24.3592 10.5583 24.3246 10.5607 24.2899 10.5607C23.8846 10.5607 23.5422 10.2384 23.5155 10.0496C23.4824 9.80691 23.8803 9.62253 24.2905 9.5656C24.7007 9.50868 25.1345 9.5777 25.1684 9.82011Z" fill="#505050"/>
</svg>
