<svg width="38" height="33" viewBox="0 0 38 33" fill="none" xmlns="http://www.w3.org/2000/svg">
<path d="M22.5308 16.5039C22.5308 17.4191 22.1581 18.297 21.4945 18.9443C20.8309 19.5916 19.9308 19.9555 18.9921 19.9559C18.0531 19.9559 17.1526 19.5922 16.4887 18.9448C15.8247 18.2975 15.4517 17.4194 15.4517 16.5039C15.4517 15.5886 15.8245 14.7108 16.4881 14.0634C17.1517 13.4161 18.0518 13.0522 18.9905 13.0518C19.9295 13.0518 20.83 13.4155 21.4939 14.0629C22.1578 14.7103 22.5308 15.5883 22.5308 16.5039ZM26.7235 0C24.5923 0 21.8041 1.48211 18.9842 4.048C16.1658 1.496 13.376 0.0308772 11.2464 0.0308772C10.5973 0.0308772 10.0067 0.174456 9.49525 0.46007C7.31817 1.68435 6.8305 5.49923 7.95467 10.2867C3.135 11.738 0 14.0584 0 16.5039C0 18.9586 3.15083 21.2852 7.98475 22.7256C6.87008 27.5316 7.36725 31.3527 9.54908 32.5754C10.0558 32.8641 10.6416 33 11.2939 33C13.4235 33 16.2133 31.5179 19.0333 28.9489C21.8516 31.5025 24.6414 32.9676 26.771 32.9676C27.4202 32.9676 28.0107 32.8286 28.5222 32.543C30.6977 31.3203 31.1869 27.5054 30.0627 22.7164C34.865 21.2775 38 18.9524 38 16.5039C38 14.0491 34.8492 11.7225 30.0153 10.279C31.1299 5.47761 30.6328 1.65347 28.4509 0.429193C27.9474 0.145123 27.3632 0.00154386 26.7235 0ZM26.7156 1.68281V1.69207C27.0718 1.69207 27.3584 1.76 27.5991 1.88814C28.6536 2.47789 29.1112 4.72112 28.7549 7.6066C28.6694 8.31677 28.5301 9.06554 28.3591 9.82975C26.8391 9.4654 25.1829 9.18596 23.4397 9.00533C22.3947 7.60814 21.3101 6.33909 20.2176 5.22751C22.7383 2.9426 25.1053 1.68898 26.7172 1.68435L26.7156 1.68281ZM11.2464 1.71368C12.8488 1.71368 15.2269 2.96112 17.7539 5.23368C16.6678 6.34526 15.5848 7.6066 14.5556 9.00379C12.8028 9.18442 11.1451 9.46386 9.62667 9.83439C9.44933 9.07789 9.31792 8.3461 9.2245 7.6421C8.86033 4.75817 9.31 2.51649 10.355 1.91902C10.6558 1.78007 10.9883 1.7214 11.2464 1.71368ZM18.9762 6.42246C19.6967 7.14498 20.4171 7.95396 21.1296 8.83705C20.4329 8.80618 19.7204 8.78456 19 8.78456C18.2717 8.78456 17.5513 8.8 16.8467 8.83705C17.5433 7.95396 18.2638 7.14653 18.9762 6.42246ZM19 10.4766C20.1717 10.4766 21.3386 10.5291 22.4865 10.6202C23.1293 11.5187 23.7563 12.4775 24.3596 13.4918C24.9486 14.4799 25.4838 15.4834 25.9714 16.4961C25.4838 17.5074 24.9486 18.5186 24.3675 19.5067C23.7658 20.5256 23.1436 21.4952 22.4992 22.3937C21.3465 22.4909 20.178 22.545 19 22.545C17.8283 22.545 16.6614 22.4909 15.5135 22.4014C14.8707 21.5029 14.2437 20.5426 13.6404 19.5298C13.0514 18.5418 12.5163 17.5382 12.0286 16.5255C12.5083 15.5112 13.0514 14.4984 13.6325 13.5088C14.2342 12.4898 14.8564 11.5234 15.5008 10.6248C16.6535 10.526 17.822 10.4735 19 10.4735V10.4766ZM13.2446 10.8688C12.8646 11.4508 12.4846 12.0467 12.1299 12.6596C11.7737 13.2618 11.4412 13.8669 11.1245 14.4721C10.7049 13.4594 10.3487 12.4497 10.0542 11.4662C11.0675 11.2347 12.1362 11.0278 13.2446 10.8688ZM24.7396 10.8688C25.84 11.0278 26.9008 11.2239 27.9158 11.4662C27.6308 12.442 27.2745 13.4455 26.8708 14.4505C26.5541 13.8484 26.2216 13.2417 25.8574 12.638C25.5012 12.0328 25.1212 11.4431 24.7412 10.8688H24.7396ZM29.5893 11.9109C30.3557 12.1425 31.084 12.4003 31.7664 12.6797C34.5088 13.8222 36.2821 15.3166 36.2821 16.5023C36.2742 17.688 34.5008 19.1886 31.7585 20.3234C31.0935 20.6013 30.3652 20.8514 29.6131 21.0845C29.1698 19.6055 28.5903 18.0647 27.8714 16.4838C28.5839 14.9137 29.1539 13.3806 29.5893 11.9078V11.9109ZM8.38058 11.9171C8.82075 13.3992 9.40183 14.9384 10.1223 16.5178C9.40975 18.0879 8.83658 19.6209 8.40275 21.0938C7.63642 20.8622 6.90808 20.6028 6.23358 20.3218C3.49125 19.184 1.71792 17.688 1.71792 16.5023C1.71792 15.3166 3.49125 13.8129 6.23358 12.6797C6.89858 12.4018 7.62692 12.1517 8.38058 11.9171ZM26.8708 18.5248C27.2903 19.5391 27.6466 20.5503 27.9411 21.5322C26.9277 21.7746 25.8574 21.9799 24.7491 22.1343C25.1291 21.5554 25.5091 20.9579 25.8653 20.3465C26.2216 19.7444 26.5525 19.13 26.8708 18.5248ZM11.1245 18.5556C11.4412 19.1608 11.7737 19.7645 12.1378 20.3697C12.502 20.9718 12.8741 21.5615 13.2541 22.1343C12.1537 21.9768 11.0928 21.7792 10.0779 21.5384C10.3629 20.5658 10.7208 19.5592 11.1229 18.5541L11.1245 18.5556ZM28.3733 23.1672C28.5507 23.9283 28.69 24.6616 28.7755 25.3641C29.1397 28.248 28.69 30.4897 27.645 31.0887C27.4122 31.2276 27.1098 31.2863 26.7536 31.2863C25.1512 31.2863 22.7731 30.0404 20.2461 27.7663C21.3323 26.6547 22.4153 25.3949 23.4444 23.9993C25.1972 23.8171 26.8549 23.5377 28.3733 23.1672ZM9.6425 23.1826C11.1625 23.5439 12.8187 23.8233 14.5619 24.0039C15.6069 25.4011 16.6915 26.6702 17.784 27.7802C15.2586 30.0698 12.8883 31.3234 11.2765 31.3234C10.9282 31.3157 10.6337 31.2462 10.4009 31.1196C9.34642 30.5329 8.88883 28.2881 9.24508 25.4027C9.33058 24.6925 9.4715 23.9453 9.6425 23.1826ZM16.8625 24.1707C17.5592 24.2015 18.2717 24.2232 18.9921 24.2232C19.7204 24.2232 20.4408 24.2077 21.1454 24.1707C20.4487 25.0538 19.7283 25.8612 19.0158 26.5868C18.2954 25.8612 17.575 25.0538 16.8625 24.1707Z" fill="#61dafb"/>
</svg>
