<svg width="34" height="33" viewBox="0 0 34 33" fill="none" xmlns="http://www.w3.org/2000/svg">
<path d="M23.5644 23.0304C24.7969 22.9217 25.7503 21.8125 25.6894 20.4873C25.6228 19.162 24.5618 18.0978 23.2684 18.0978H23.1819C22.5401 18.1212 21.9336 18.4046 21.4958 18.8856C21.058 19.3665 20.8247 20.0058 20.8473 20.6627C20.8898 21.3572 21.1675 21.9227 21.5471 22.3344C20.0625 25.2894 17.8341 27.4613 14.4568 29.2868C12.186 30.5018 9.78757 30.96 7.45294 30.6352C5.50081 30.3525 3.97367 29.4608 3.03868 28.0268C1.63904 25.8534 1.51154 23.5089 2.67744 21.1629C3.52742 19.4665 4.80099 18.2297 5.65097 17.6208C5.39438 16.8926 5.1954 16.1444 5.05598 15.3836C-1.22967 19.9914 -0.589344 26.2898 1.32029 29.2665C2.7426 31.4384 5.65097 32.8275 8.83417 32.8275C9.68416 32.8275 10.5766 32.7637 11.445 32.5462C16.9657 31.4602 21.1462 28.0718 23.5446 23.0754L23.5644 23.0304ZM31.1407 17.599C27.854 13.6437 23.0119 11.4717 17.4927 11.4717H16.7702C16.4118 10.6685 15.5845 10.1682 14.6481 10.1682H14.5843C13.2484 10.1682 12.2072 11.3427 12.2511 12.7099C12.2936 14.012 13.3759 15.0994 14.6707 15.0994H14.7756C15.2348 15.0812 15.6793 14.9282 16.0558 14.6585C16.4324 14.3888 16.7251 14.0138 16.8991 13.5784H17.6854C20.9564 13.5784 24.0532 14.5557 26.8766 16.4667C29.0398 17.9238 30.591 19.8348 31.4622 22.117C32.2244 23.9844 32.1833 25.8099 31.3985 27.3323C30.1873 29.7203 28.1487 30.9817 25.4542 30.9817C23.7557 30.9817 22.101 30.438 21.2511 30.048C20.7411 30.4801 19.8911 31.1978 19.2763 31.6327C21.1434 32.4998 23.0332 33 24.8578 33C28.9973 33 32.0742 30.612 33.243 28.3081C34.5151 25.7011 34.4103 21.3137 31.1605 17.5555L31.1407 17.599ZM9.194 23.8105C9.2365 25.1139 10.3174 26.1999 11.6136 26.1999H11.6986C12.0176 26.1925 12.332 26.1199 12.6231 25.9863C12.9143 25.8527 13.1763 25.6608 13.3939 25.4219C13.6115 25.183 13.7801 24.9019 13.8899 24.5953C13.9997 24.2887 14.0485 23.9627 14.0333 23.6365C14.0333 22.3315 12.9297 21.2485 11.6349 21.2485H11.5499C11.4649 21.2485 11.3374 21.2485 11.2297 21.2905C9.46883 18.2486 8.72509 14.9877 9.00275 11.4717C9.17275 8.82127 10.0227 6.51736 11.5485 4.60637C12.8234 2.97667 15.2218 2.17052 16.8566 2.12992C21.4409 2.04148 23.3519 7.88752 23.4993 10.2117L25.6214 10.8642C25.1327 3.73642 20.8048 0 16.6654 0C12.7781 0 9.194 2.88968 7.74902 7.12632C5.77564 12.7737 7.07045 18.2065 9.4915 22.5519C9.279 22.8347 9.1515 23.3334 9.194 23.8105Z" fill="#764ABC"/>
</svg>
