<svg width="33" height="33" viewBox="0 0 33 33" fill="none" xmlns="http://www.w3.org/2000/svg">
<path d="M16.5 0C25.6121 0 33 7.38788 33 16.5C33 25.6121 25.6121 33 16.5 33C7.38788 33 0 25.6121 0 16.5C0 7.38788 7.38788 0 16.5 0ZM13.2206 21.9972C13.4612 22.8841 13.4351 23.7133 13.1876 24.4613L13.0983 24.7087C13.0653 24.7926 13.0267 24.8738 12.991 24.9508C12.7985 25.3495 12.5427 25.7207 12.2279 26.0645C11.2681 27.1081 9.92887 27.5041 9.35413 27.1714C8.73538 26.8111 9.04338 25.3357 10.1571 24.1601C11.3547 22.8979 13.0721 22.0853 13.0721 22.0853V22.0811L13.2206 21.9972ZM26.8482 7.06337C26.103 4.1305 21.2424 3.16663 16.643 4.8015C13.9081 5.77363 10.945 7.30125 8.81512 9.29362C6.281 11.66 5.87812 13.7225 6.0445 14.5846C6.63162 17.6248 10.7979 19.613 12.5111 21.0884V21.0966C12.0065 21.3441 8.30912 23.199 7.44287 25.1185C6.51475 27.1397 7.58725 28.5849 8.2885 28.7691C10.4541 29.3686 12.6816 28.2741 13.8779 26.5018C15.0329 24.7679 14.9311 22.5404 14.4334 21.4473C15.1154 21.2616 15.9184 21.1791 16.9496 21.3043C19.8385 21.6343 20.416 23.4492 20.2909 24.1917C20.1671 24.9329 19.5718 25.366 19.3641 25.4897C19.1579 25.6149 19.096 25.6547 19.1152 25.7386C19.1359 25.8624 19.2404 25.8624 19.404 25.8418C19.6309 25.8005 20.911 25.223 20.9729 23.8191C21.0347 22.0454 19.3421 20.0667 16.3323 20.1066C15.0948 20.1286 14.3096 20.2318 13.7541 20.4586C13.7129 20.3967 13.6702 20.3555 13.6097 20.3143C11.7535 18.3136 8.30912 16.9111 8.4535 14.2505C8.49475 13.2811 8.84538 10.725 15.0535 7.63125C20.1479 5.093 24.2124 5.79563 24.9136 7.3425C25.9215 9.548 22.7466 13.6538 17.446 14.2505C15.4247 14.4774 14.3729 13.695 14.1034 13.4049C13.816 13.0955 13.7747 13.0749 13.6716 13.1381C13.5066 13.2206 13.6097 13.4888 13.6716 13.6538C13.8366 14.0663 14.476 14.7881 15.5911 15.1594C16.5591 15.4687 18.9324 15.653 21.7786 14.5406C24.9741 13.3045 27.4697 9.85875 26.7479 6.97125L26.8482 7.06337Z" fill="#c69"/>
</svg>
