<svg width="34" height="21" viewBox="0 0 34 21" fill="none" xmlns="http://www.w3.org/2000/svg">
<path d="M17 0C12.4667 0 9.63333 2.33333 8.5 7C10.2 4.66667 12.1833 3.79167 14.45 4.375C15.7434 4.7075 16.6671 5.67292 17.6913 6.74333C19.3587 8.48458 21.2868 10.5 25.5 10.5C30.0333 10.5 32.8667 8.16667 34 3.5C32.3 5.83333 30.3167 6.70833 28.05 6.125C26.7566 5.7925 25.8329 4.82708 24.8087 3.75667C23.1427 2.01542 21.2146 0 17 0ZM8.5 10.5C3.96667 10.5 1.13333 12.8333 0 17.5C1.7 15.1667 3.68333 14.2917 5.95 14.875C7.24342 15.2075 8.16708 16.1729 9.19133 17.2433C10.8587 18.9846 12.7868 21 17 21C21.5333 21 24.3667 18.6667 25.5 14C23.8 16.3333 21.8167 17.2083 19.55 16.625C18.2566 16.2925 17.3329 15.3271 16.3087 14.2567C14.6427 12.5154 12.7146 10.5 8.5 10.5Z" fill="#38bdf8"/>
</svg>
