<svg width="33" height="33" viewBox="0 0 33 33" fill="none" xmlns="http://www.w3.org/2000/svg">
<path d="M29.5199 9.38437C30.6749 11.4977 31.3321 13.9219 31.3321 16.5C31.3321 21.9711 28.3676 26.752 23.958 29.3219L28.4886 16.2222C29.3342 14.1048 29.6161 12.4121 29.6161 10.9093C29.6161 10.3524 29.5804 9.83813 29.5199 9.38437ZM18.546 9.52738C19.4356 9.48612 20.24 9.383 20.24 9.383C21.0403 9.27987 20.9468 8.10425 20.1479 8.14688C20.1479 8.14688 17.7347 8.3325 16.1879 8.3325C14.7249 8.3325 12.2691 8.12625 12.2691 8.12625C11.4648 8.085 11.3602 9.30188 12.166 9.34313C12.166 9.34313 12.9085 9.427 13.7129 9.46688L16.0229 15.7987L12.7641 25.5337L7.36175 9.4875C8.25412 9.44625 9.0585 9.35 9.0585 9.35C9.86287 9.24687 9.768 8.07125 8.96912 8.118C8.96912 8.118 6.56838 8.30775 5.01737 8.30775C4.74237 8.30775 4.41513 8.29675 4.06862 8.28712C6.75262 4.33125 11.3231 1.67063 16.5 1.67063C20.3624 1.67063 23.8769 3.14462 26.5182 5.566C26.455 5.56187 26.3931 5.55363 26.3244 5.55363C24.8669 5.55363 23.8329 6.82275 23.8329 8.18538C23.8329 9.40913 24.5382 10.4445 25.2904 11.6655C25.8555 12.6555 26.5141 13.9246 26.5141 15.7589C26.5141 17.017 26.0274 18.5006 25.3853 20.5425L23.9071 25.4719L18.5446 9.50813L18.546 9.52738ZM16.5 31.328C15.0439 31.328 13.6386 31.1176 12.309 30.7271L16.7599 17.7939L21.318 30.2885C21.351 30.3614 21.3867 30.4274 21.4252 30.4934C19.8853 31.0338 18.2284 31.3307 16.5 31.3307M1.66512 16.5C1.66512 14.3495 2.12712 12.3063 2.95075 10.4637L10.0238 29.8499C5.07925 27.445 1.6665 22.3726 1.66512 16.5ZM16.5 0C7.40438 0 0 7.40438 0 16.5C0 25.5956 7.40438 33 16.5 33C25.5956 33 33 25.5956 33 16.5C33 7.40438 25.5956 0 16.5 0Z" fill="#505050"/>
</svg>
